<svg width="24" height="24" viewBox="0 0 24 24" fill="none" xmlns="http://www.w3.org/2000/svg">
<g id="address-location-map-svgrepo-com 1">
<g id="Vector">
<path d="M11.7834 3C8.04402 3 5 6.04403 5 9.78343C5 16.3632 11.401 21.3653 11.401 21.3653C11.5103 21.4525 11.6459 21.5 11.7857 21.5C11.9255 21.5 12.0611 21.4525 12.1704 21.3653C12.1704 21.3653 18.5714 16.3632 18.5714 9.78343C18.5714 6.04403 15.5228 3 11.7834 3ZM11.7834 4.23376C14.8562 4.23376 17.3376 6.71063 17.3376 9.78343C17.3377 15.1662 12.4635 19.419 11.788 19.995C11.1157 19.4219 6.23376 15.1683 6.23376 9.78343C6.23377 6.71063 8.71063 4.23376 11.7834 4.23376Z" fill="#0F0F0F"/>
<path d="M11.7834 6.7013C10.0877 6.7013 8.70131 8.08769 8.7013 9.78344C8.70129 11.4792 10.0877 12.8701 11.7834 12.8701C13.4792 12.8701 14.8701 11.4792 14.8701 9.78344C14.8701 8.08769 13.4792 6.7013 11.7834 6.7013ZM11.7834 7.93506C12.8126 7.93506 13.6364 8.7543 13.6364 9.78344C13.6364 10.8126 12.8126 11.6364 11.7834 11.6364C10.7543 11.6364 9.93506 10.8126 9.93506 9.78344C9.93507 8.7543 10.7543 7.93506 11.7834 7.93506Z" fill="#0F0F0F"/>
</g>
</g>
</svg>
