<svg width="21" height="18" viewBox="0 0 21 18" fill="none" xmlns="http://www.w3.org/2000/svg">
<g id="Group">
<path id="Vector" d="M10.27 14.4814C9.57707 14.4814 9.01343 15.0461 9.01343 15.7405C9.01343 16.4349 9.57707 17.0001 10.27 17.0001C10.9629 17.0001 11.5265 16.4354 11.5265 15.7405C11.5265 15.0466 10.9629 14.4814 10.27 14.4814ZM10.27 16.499C9.85313 16.499 9.51445 16.1589 9.51445 15.7405C9.51445 15.3222 9.85313 14.9825 10.27 14.9825C10.6868 14.9825 11.0255 15.3227 11.0255 15.7405C11.0255 16.1584 10.6868 16.499 10.27 16.499Z" fill="#FF7A00" stroke="#FF7A00" stroke-width="0.8"/>
<path id="Vector_2" d="M10.2699 5.35889C9.4412 5.35889 8.76683 5.99267 8.76733 6.78679L9.0955 12.316C9.0955 12.9002 9.59902 13.3757 10.2178 13.3757C10.8365 13.3757 11.3401 12.9002 11.3391 12.3356L11.7729 6.77176C11.7729 5.99267 11.0986 5.35889 10.2699 5.35889ZM10.839 12.3155C10.839 12.6236 10.5605 12.8742 10.2178 12.8742C9.87508 12.8742 9.59652 12.6236 9.59602 12.3005L9.26785 6.77176C9.26785 6.26924 9.71726 5.8599 10.2699 5.8599C10.8225 5.8599 11.2719 6.26874 11.2724 6.75222L10.839 12.3155Z" fill="#FF7A00" stroke="#FF7A00" stroke-width="0.8"/>
<path id="Vector_3" d="M2.8003 16.0305H7.2308C7.36908 16.0305 7.48131 15.9183 7.48131 15.78C7.48131 15.6417 7.36908 15.5295 7.2308 15.5295H2.8003C2.31481 15.5295 1.88794 15.277 1.65848 14.8536C1.43302 14.4378 1.45256 13.9523 1.71108 13.5555L9.18076 2.08821C9.42024 1.72046 9.82757 1.50102 10.27 1.50102C10.7124 1.50102 11.1197 1.72046 11.3592 2.08821L18.8289 13.5555C19.0874 13.9523 19.1069 14.4378 18.8815 14.8536C18.652 15.277 18.2251 15.5295 17.7396 15.5295H13.3091C13.1709 15.5295 13.0586 15.6417 13.0586 15.78C13.0586 15.9183 13.1709 16.0305 13.3091 16.0305H17.7396C18.412 16.0305 19.0032 15.6798 19.3219 15.0921C19.6365 14.5119 19.6089 13.8351 19.2487 13.2814L11.779 1.81465C11.4469 1.30412 10.8827 1 10.27 1C9.65723 1 9.09308 1.30462 8.7609 1.81465L1.29123 13.2819C0.930499 13.8356 0.903444 14.5124 1.21808 15.0926C1.53623 15.6798 2.12793 16.0305 2.8003 16.0305Z" fill="#FF7A00" stroke="#FF7A00"/>
</g>
</svg>
