<svg width="26" height="26" viewBox="0 0 26 26" fill="none" xmlns="http://www.w3.org/2000/svg">
<path d="M23.5408 19.4999L14.8742 4.33325C14.6852 3.99981 14.4111 3.72245 14.08 3.52949C13.7488 3.33653 13.3724 3.23486 12.9892 3.23486C12.6059 3.23486 12.2295 3.33653 11.8983 3.52949C11.5672 3.72245 11.2931 3.99981 11.1042 4.33325L2.43748 19.4999C2.24647 19.8307 2.14632 20.2061 2.14716 20.5881C2.14801 20.9701 2.24983 21.3451 2.4423 21.6751C2.63478 22.005 2.91106 22.2782 3.24315 22.467C3.57525 22.6557 3.95134 22.7534 4.33332 22.7499H21.6667C22.0468 22.7495 22.4201 22.6491 22.7492 22.4588C23.0783 22.2685 23.3515 21.9949 23.5414 21.6656C23.7313 21.3363 23.8312 20.9628 23.8311 20.5827C23.831 20.2026 23.7309 19.8291 23.5408 19.4999Z" stroke="#F58D17" stroke-linecap="round" stroke-linejoin="round"/>
<path d="M13 9.75V14.0833" stroke="#F58D17" stroke-linecap="round" stroke-linejoin="round"/>
<path d="M13 18.4167H13.0108" stroke="#F58D17" stroke-linecap="round" stroke-linejoin="round"/>
</svg>
