<svg width="26" height="26" viewBox="0 0 26 26" fill="none" xmlns="http://www.w3.org/2000/svg">
<path d="M23.5406 19.5L14.874 4.33337C14.685 3.99993 14.411 3.72258 14.0798 3.52961C13.7487 3.33665 13.3722 3.23499 12.989 3.23499C12.6057 3.23499 12.2293 3.33665 11.8981 3.52961C11.567 3.72258 11.2929 3.99993 11.104 4.33337L2.4373 19.5C2.24629 19.8308 2.14613 20.2063 2.14698 20.5883C2.14782 20.9702 2.24964 21.3452 2.44212 21.6752C2.63459 22.0051 2.91088 22.2783 3.24297 22.4671C3.57506 22.6559 3.95116 22.7535 4.33314 22.75H21.6665C22.0466 22.7497 22.42 22.6493 22.749 22.4589C23.0781 22.2686 23.3513 21.9951 23.5412 21.6657C23.7311 21.3364 23.831 20.963 23.8309 20.5828C23.8308 20.2027 23.7307 19.8293 23.5406 19.5Z" stroke="#991B1B" stroke-linecap="round" stroke-linejoin="round"/>
<path d="M13 9.75V14.0833" stroke="#F58D17" stroke-linecap="round" stroke-linejoin="round"/>
<path d="M13 18.4166H13.0108" stroke="#F58D17" stroke-linecap="round" stroke-linejoin="round"/>
</svg>
