<svg width="20" height="20" viewBox="0 0 20 20" fill="none" xmlns="http://www.w3.org/2000/svg">
<g id="bin-svgrepo-com 1">
<g id="Vector">
<mask id="path-1-inside-1_4800_1364" fill="white">
<path d="M2.20841 3.83335C1.90926 3.83335 1.66675 4.07587 1.66675 4.37502C1.66675 4.67417 1.90926 4.91669 2.20841 4.91669V3.83335ZM17.3751 4.91669C17.6742 4.91669 17.9168 4.67417 17.9168 4.37502C17.9168 4.07587 17.6742 3.83335 17.3751 3.83335V4.91669ZM2.20841 4.91669H17.3751V3.83335H2.20841V4.91669Z"/>
<path d="M6.54175 4.37502C6.54175 4.67417 6.78426 4.91669 7.08342 4.91669C7.38257 4.91669 7.62508 4.67417 7.62508 4.37502H6.54175ZM11.9584 4.37502C11.9584 4.67417 12.2009 4.91669 12.5001 4.91669C12.7992 4.91669 13.0417 4.67417 13.0417 4.37502H11.9584ZM11.4167 1.66669H8.16675V2.75002H11.4167V1.66669ZM8.16675 1.66669C7.73577 1.66669 7.32245 1.83789 7.0177 2.14264L7.78373 2.90867C7.88531 2.80709 8.02309 2.75002 8.16675 2.75002V1.66669ZM7.0177 2.14264C6.71295 2.44739 6.54175 2.86071 6.54175 3.29169H7.62508C7.62508 3.14803 7.68215 3.01025 7.78373 2.90867L7.0177 2.14264ZM6.54175 3.29169V4.37502H7.62508V3.29169H6.54175ZM13.0417 4.37502V3.29169H11.9584V4.37502H13.0417ZM13.0417 3.29169C13.0417 2.86071 12.8705 2.44739 12.5658 2.14264L11.7997 2.90867C11.9014 3.01025 11.9584 3.14803 11.9584 3.29169H13.0417ZM12.5658 2.14264C12.261 1.83789 11.8477 1.66669 11.4167 1.66669V2.75002C11.5604 2.75002 11.6982 2.80709 11.7997 2.90867L12.5658 2.14264Z"/>
<path d="M7.62508 13.5834C7.62508 13.8825 7.8676 14.125 8.16675 14.125C8.46589 14.125 8.70842 13.8825 8.70842 13.5834H7.62508ZM8.70842 8.16669C8.70842 7.86754 8.46589 7.62502 8.16675 7.62502C7.8676 7.62502 7.62508 7.86754 7.62508 8.16669H8.70842ZM8.70842 13.5834V8.16669H7.62508V13.5834H8.70842Z"/>
<path d="M10.8751 13.5834C10.8751 13.8825 11.1176 14.125 11.4167 14.125C11.7159 14.125 11.9584 13.8825 11.9584 13.5834H10.8751ZM11.9584 8.16669C11.9584 7.86754 11.7159 7.62502 11.4167 7.62502C11.1176 7.62502 10.8751 7.86754 10.8751 8.16669H11.9584ZM11.9584 13.5834V8.16669H10.8751V13.5834H11.9584Z"/>
<path d="M4.37322 4.33002C4.34836 4.03189 4.08654 3.81037 3.78842 3.83522C3.4903 3.86008 3.26878 4.1219 3.29363 4.42002L4.37322 4.33002ZM16.2899 4.41999C16.3147 4.12187 16.0932 3.86006 15.7951 3.83522C15.497 3.81039 15.2351 4.03193 15.2103 4.33005L16.2899 4.41999ZM14.21 16.3362C14.1988 16.4717 14.137 16.5982 14.037 16.6902L14.7707 17.4873C15.0707 17.2112 15.2559 16.8323 15.2896 16.426L14.21 16.3362ZM14.037 16.6902C13.937 16.7823 13.8061 16.8334 13.6702 16.8334L13.67 17.9167C14.0778 17.9167 14.4707 17.7635 14.7707 17.4873L14.037 16.6902ZM13.6702 16.8334H5.91415V17.9167H13.67L13.6702 16.8334ZM5.91415 16.8334C5.77823 16.8334 5.64723 16.7823 5.54722 16.6902L4.81357 17.4873C5.11359 17.7635 5.5064 17.9167 5.91415 17.9167V16.8334ZM5.54722 16.6902C5.44722 16.5982 5.38547 16.4719 5.37424 16.3365L4.29461 16.426C4.32832 16.8323 4.51356 17.2112 4.81357 17.4873L5.54722 16.6902ZM5.37424 16.3365L4.37322 4.33002L3.29363 4.42002L4.29461 16.426L5.37424 16.3365ZM15.2103 4.33005L14.21 16.3362L15.2896 16.426L16.2899 4.41999L15.2103 4.33005Z"/>
</mask>
<path d="M2.20841 3.83335C1.90926 3.83335 1.66675 4.07587 1.66675 4.37502C1.66675 4.67417 1.90926 4.91669 2.20841 4.91669V3.83335ZM17.3751 4.91669C17.6742 4.91669 17.9168 4.67417 17.9168 4.37502C17.9168 4.07587 17.6742 3.83335 17.3751 3.83335V4.91669ZM2.20841 4.91669H17.3751V3.83335H2.20841V4.91669Z" fill="#F73131"/>
<path d="M6.54175 4.37502C6.54175 4.67417 6.78426 4.91669 7.08342 4.91669C7.38257 4.91669 7.62508 4.67417 7.62508 4.37502H6.54175ZM11.9584 4.37502C11.9584 4.67417 12.2009 4.91669 12.5001 4.91669C12.7992 4.91669 13.0417 4.67417 13.0417 4.37502H11.9584ZM11.4167 1.66669H8.16675V2.75002H11.4167V1.66669ZM8.16675 1.66669C7.73577 1.66669 7.32245 1.83789 7.0177 2.14264L7.78373 2.90867C7.88531 2.80709 8.02309 2.75002 8.16675 2.75002V1.66669ZM7.0177 2.14264C6.71295 2.44739 6.54175 2.86071 6.54175 3.29169H7.62508C7.62508 3.14803 7.68215 3.01025 7.78373 2.90867L7.0177 2.14264ZM6.54175 3.29169V4.37502H7.62508V3.29169H6.54175ZM13.0417 4.37502V3.29169H11.9584V4.37502H13.0417ZM13.0417 3.29169C13.0417 2.86071 12.8705 2.44739 12.5658 2.14264L11.7997 2.90867C11.9014 3.01025 11.9584 3.14803 11.9584 3.29169H13.0417ZM12.5658 2.14264C12.261 1.83789 11.8477 1.66669 11.4167 1.66669V2.75002C11.5604 2.75002 11.6982 2.80709 11.7997 2.90867L12.5658 2.14264Z" fill="#F73131"/>
<path d="M7.62508 13.5834C7.62508 13.8825 7.8676 14.125 8.16675 14.125C8.46589 14.125 8.70842 13.8825 8.70842 13.5834H7.62508ZM8.70842 8.16669C8.70842 7.86754 8.46589 7.62502 8.16675 7.62502C7.8676 7.62502 7.62508 7.86754 7.62508 8.16669H8.70842ZM8.70842 13.5834V8.16669H7.62508V13.5834H8.70842Z" fill="#F73131"/>
<path d="M10.8751 13.5834C10.8751 13.8825 11.1176 14.125 11.4167 14.125C11.7159 14.125 11.9584 13.8825 11.9584 13.5834H10.8751ZM11.9584 8.16669C11.9584 7.86754 11.7159 7.62502 11.4167 7.62502C11.1176 7.62502 10.8751 7.86754 10.8751 8.16669H11.9584ZM11.9584 13.5834V8.16669H10.8751V13.5834H11.9584Z" fill="#F73131"/>
<path d="M4.37322 4.33002C4.34836 4.03189 4.08654 3.81037 3.78842 3.83522C3.4903 3.86008 3.26878 4.1219 3.29363 4.42002L4.37322 4.33002ZM16.2899 4.41999C16.3147 4.12187 16.0932 3.86006 15.7951 3.83522C15.497 3.81039 15.2351 4.03193 15.2103 4.33005L16.2899 4.41999ZM14.21 16.3362C14.1988 16.4717 14.137 16.5982 14.037 16.6902L14.7707 17.4873C15.0707 17.2112 15.2559 16.8323 15.2896 16.426L14.21 16.3362ZM14.037 16.6902C13.937 16.7823 13.8061 16.8334 13.6702 16.8334L13.67 17.9167C14.0778 17.9167 14.4707 17.7635 14.7707 17.4873L14.037 16.6902ZM13.6702 16.8334H5.91415V17.9167H13.67L13.6702 16.8334ZM5.91415 16.8334C5.77823 16.8334 5.64723 16.7823 5.54722 16.6902L4.81357 17.4873C5.11359 17.7635 5.5064 17.9167 5.91415 17.9167V16.8334ZM5.54722 16.6902C5.44722 16.5982 5.38547 16.4719 5.37424 16.3365L4.29461 16.426C4.32832 16.8323 4.51356 17.2112 4.81357 17.4873L5.54722 16.6902ZM5.37424 16.3365L4.37322 4.33002L3.29363 4.42002L4.29461 16.426L5.37424 16.3365ZM15.2103 4.33005L14.21 16.3362L15.2896 16.426L16.2899 4.41999L15.2103 4.33005Z" fill="#F73131"/>
<path d="M18.8751 4.91669V3.83335H-14.4583V4.91669H18.8751ZM0.708418 3.83335V4.91669H34.0418V3.83335H0.708418ZM7.62508 -12.2916H6.54175V21.0417H7.62508V-12.2916ZM13.0417 -12.2916H11.9584V21.0417H13.0417V-12.2916ZM-8.49992 1.66669V2.75002H24.8334V1.66669H-8.49992ZM28.0834 2.75002V1.66669H-5.24992V2.75002H28.0834ZM-4.76741 13.9278L-4.00138 14.6938L19.5688 -8.87644L18.8028 -9.64248L-4.76741 13.9278ZM6.54175 19.9584H7.62508V-13.375H6.54175V19.9584ZM13.0417 -13.375H11.9584V19.9584H13.0417V-13.375ZM0.780908 -9.64269L0.0148473 -8.87666L23.5846 14.694L24.3507 13.928L0.780908 -9.64269ZM8.70842 -3.08331H7.62508V30.25H8.70842V-3.08331ZM7.62508 24.8334H8.70842V-8.49998H7.62508V24.8334ZM11.9584 -3.08331H10.8751V30.25H11.9584V-3.08331ZM10.8751 24.8334H11.9584V-8.49998H10.8751V24.8334ZM4.67829 21.0291L5.75789 20.9391L2.98856 -12.279L1.90896 -12.189L4.67829 21.0291ZM13.8265 20.9392L14.9061 21.0291L17.6737 -12.1891L16.5941 -12.2791L13.8265 20.9392ZM1.77422 27.9775L2.50792 28.7746L27.0335 6.20006L26.2997 5.40295L1.77422 27.9775ZM16.6708 -0.183319L15.5912 -0.273092L12.8289 32.9456L13.9085 33.0354L16.6708 -0.183319ZM-2.9965 16.8311L-2.99665 17.9145L30.3367 17.9189L30.3368 16.8356L-2.9965 16.8311ZM-10.7525 16.8334V17.9167H22.5808V16.8334H-10.7525ZM-6.71598 5.40342L-7.44963 6.20054L17.0768 28.7741L17.8104 27.977L-6.71598 5.40342ZM3.99644 -0.273155L2.91682 -0.183598L5.67241 33.0356L6.75203 32.9461L3.99644 -0.273155ZM7.0177 2.14264L-16.5524 -21.4277L-16.5525 -21.4276L7.0177 2.14264ZM12.5658 2.14264L36.1377 -21.4259L36.1348 -21.4288L12.5658 2.14264ZM11.7997 2.90867L-11.7747 26.4747L-11.7663 26.4831L11.7997 2.90867ZM4.37322 4.33002L37.5913 1.56052L37.5913 1.56017L4.37322 4.33002ZM3.78842 3.83522L1.01931 -29.3829L1.01858 -29.3828L3.78842 3.83522ZM3.29363 4.42002L-29.9245 7.18914L-29.9245 7.18954L3.29363 4.42002ZM16.2899 4.41999L-16.9283 1.65164L-16.9284 1.65243L16.2899 4.41999ZM15.7951 3.83522L13.0277 37.0535L13.0277 37.0535L15.7951 3.83522ZM15.2103 4.33005L-18.0079 1.56169L-18.0079 1.56252L15.2103 4.33005ZM14.21 16.3362L-19.0082 13.5687L-19.0085 13.5726L14.21 16.3362ZM14.037 16.6902L-8.52968 -7.84256L-8.5389 -7.83408L-8.54812 -7.82559L14.037 16.6902ZM14.7707 17.4873L-7.80205 -7.03985L-7.80526 -7.0369L14.7707 17.4873ZM15.2896 16.426L-17.9286 13.6585L-17.9293 13.6665L-17.93 13.6745L15.2896 16.426ZM5.54722 16.6902L28.1261 -7.83129L28.1174 -7.83932L5.54722 16.6902ZM4.81357 17.4873L27.3895 -7.03689L27.386 -7.04013L4.81357 17.4873ZM5.37424 16.3365L38.5934 13.5797L38.5923 13.567L5.37424 16.3365ZM4.29461 16.426L37.5138 13.6704L37.5127 13.6565L4.29461 16.426ZM2.20841 -29.5C-16.5002 -29.5 -31.6666 -14.3336 -31.6666 4.37502H35.0001C35.0001 22.4854 20.3188 37.1667 2.20841 37.1667V-29.5ZM-31.6666 4.37502C-31.6666 23.0837 -16.5002 38.25 2.20841 38.25V-28.4166C20.3187 -28.4166 35.0001 -13.7353 35.0001 4.37502H-31.6666ZM17.3751 38.25C36.0834 38.25 51.2501 23.084 51.2501 4.37502H-15.4166C-15.4166 -13.7356 -0.73496 -28.4166 17.3751 -28.4166V38.25ZM51.2501 4.37502C51.2501 -14.3339 36.0834 -29.5 17.3751 -29.5V37.1667C-0.734977 37.1667 -15.4166 22.4856 -15.4166 4.37502H51.2501ZM2.20841 38.25H17.3751V-28.4166H2.20841V38.25ZM17.3751 -29.5H2.20841V37.1667H17.3751V-29.5ZM-26.7916 4.37502C-26.7916 23.0837 -11.6252 38.25 7.08342 38.25V-28.4166C25.1937 -28.4166 39.8751 -13.7353 39.8751 4.37502H-26.7916ZM7.08342 38.25C25.7921 38.25 40.9584 23.0837 40.9584 4.37502H-25.7082C-25.7082 -13.7353 -11.0269 -28.4166 7.08342 -28.4166V38.25ZM-21.3749 4.37502C-21.3749 23.084 -6.20823 38.25 12.5001 38.25V-28.4166C30.6101 -28.4166 45.2917 -13.7356 45.2917 4.37502H-21.3749ZM12.5001 38.25C31.2084 38.25 46.3751 23.084 46.3751 4.37502H-20.2916C-20.2916 -13.7356 -5.60994 -28.4166 12.5001 -28.4166V38.25ZM11.4167 -31.6666H8.16675V35H11.4167V-31.6666ZM8.16675 36.0834H11.4167V-30.5833H8.16675V36.0834ZM8.16675 -31.6666C-1.10488 -31.6666 -9.99659 -27.9835 -16.5524 -21.4277L30.5878 25.7129C24.6415 31.6593 16.5764 35 8.16675 35V-31.6666ZM31.354 26.4789C25.2044 32.6285 16.8637 36.0834 8.16675 36.0834V-30.5833C-0.817523 -30.5833 -9.43374 -27.0143 -15.7865 -20.6616L31.354 26.4789ZM-16.5525 -21.4276C-23.1085 -14.8716 -26.7916 -5.97985 -26.7916 3.29169H39.8751C39.8751 11.7013 36.5344 19.7664 30.5879 25.7129L-16.5525 -21.4276ZM40.9584 3.29169C40.9584 11.9887 37.5035 20.3293 31.354 26.4789L-15.7865 -20.6616C-22.1392 -14.3088 -25.7082 -5.69261 -25.7082 3.29169H40.9584ZM-26.7916 3.29169V4.37502H39.8751V3.29169H-26.7916ZM40.9584 4.37502V3.29169H-25.7082V4.37502H40.9584ZM46.3751 4.37502V3.29169H-20.2916V4.37502H46.3751ZM-21.3749 3.29169V4.37502H45.2917V3.29169H-21.3749ZM46.3751 3.29169C46.3751 -5.98156 42.6908 -14.8719 36.1377 -21.4259L-11.0061 25.7112C-16.9498 19.7666 -20.2916 11.703 -20.2916 3.29169H46.3751ZM-11.7663 26.4831C-17.9211 20.3305 -21.3749 11.9869 -21.3749 3.29169H45.2917C45.2917 -5.69083 41.7238 -14.31 35.3658 -20.6657L-11.7663 26.4831ZM36.1348 -21.4288C29.5797 -27.9832 20.6888 -31.6666 11.4167 -31.6666V35C3.00659 35 -5.05769 31.659 -11.0032 25.7141L36.1348 -21.4288ZM11.4167 36.0834C2.72205 36.0834 -5.62166 32.6299 -11.7747 26.4747L35.3742 -20.6574C29.0181 -27.0157 20.3987 -30.5833 11.4167 -30.5833V36.0834ZM-25.7082 13.5834C-25.7082 32.2917 -10.5421 47.4584 8.16675 47.4584V-19.2083C26.2773 -19.2083 40.9584 -4.52674 40.9584 13.5834H-25.7082ZM8.16675 47.4584C26.8753 47.4584 42.0417 32.292 42.0417 13.5834H-24.6249C-24.6249 -4.52703 -9.94356 -19.2083 8.16675 -19.2083V47.4584ZM42.0417 8.16669C42.0417 -10.5422 26.8751 -25.7083 8.16675 -25.7083V40.9584C-9.94331 40.9584 -24.6249 26.2773 -24.6249 8.16669H42.0417ZM8.16675 -25.7083C-10.5419 -25.7083 -25.7082 -10.542 -25.7082 8.16669H40.9584C40.9584 26.277 26.2771 40.9584 8.16675 40.9584V-25.7083ZM42.0417 13.5834V8.16669H-24.6249V13.5834H42.0417ZM-25.7082 8.16669V13.5834H40.9584V8.16669H-25.7082ZM-22.4582 13.5834C-22.4582 32.292 -7.29188 47.4584 11.4167 47.4584V-19.2083C29.5271 -19.2083 44.2084 -4.527 44.2084 13.5834H-22.4582ZM11.4167 47.4584C30.1253 47.4584 45.2917 32.2921 45.2917 13.5834H-21.3749C-21.3749 -4.52706 -6.69353 -19.2083 11.4167 -19.2083V47.4584ZM45.2917 8.16669C45.2917 -10.5423 30.1251 -25.7083 11.4167 -25.7083V40.9584C-6.69327 40.9584 -21.3749 26.2774 -21.3749 8.16669H45.2917ZM11.4167 -25.7083C-7.29163 -25.7083 -22.4582 -10.5422 -22.4582 8.16669H44.2084C44.2084 26.2773 29.5268 40.9584 11.4167 40.9584V-25.7083ZM45.2917 13.5834V8.16669H-21.3749V13.5834H45.2917ZM-22.4582 8.16669V13.5834H44.2084V8.16669H-22.4582ZM37.5913 1.56017C36.0367 -17.0834 19.6631 -30.9371 1.01931 -29.3829L6.55754 37.0533C-11.49 38.5578 -27.34 25.1472 -28.8448 7.09987L37.5913 1.56017ZM1.01858 -29.3828C-17.625 -27.8283 -31.4787 -11.4546 -29.9245 7.18914L36.5117 1.65091C38.0162 19.6984 24.6056 35.5484 6.55827 37.0533L1.01858 -29.3828ZM49.5081 7.18835C51.0617 -11.4538 37.2092 -27.8296 18.5625 -29.383L13.0277 37.0535C-5.02271 35.5497 -18.4322 19.6976 -16.9283 1.65164L49.5081 7.18835ZM18.5625 -29.383C-0.0815079 -30.9362 -16.4542 -17.0817 -18.0079 1.56169L48.4285 7.0984C46.9245 25.1455 31.0754 38.557 13.0277 37.0535L18.5625 -29.383ZM-19.0085 13.5726C-18.3284 5.39764 -14.6047 -2.25445 -8.52968 -7.84256L36.6036 41.223C42.8787 35.4508 46.7259 27.5457 47.4286 19.0999L-19.0085 13.5726ZM37.3434 42.0145C43.799 36.0734 47.7849 27.9217 48.5092 19.1776L-17.93 13.6745C-17.273 5.74301 -13.6576 -1.65092 -7.80205 -7.03985L37.3434 42.0145ZM-8.54812 -7.82559C-2.48578 -13.4105 5.44819 -16.5 13.6702 -16.5V50.1667C22.164 50.1667 30.3598 46.9751 36.6221 41.206L-8.54812 -7.82559ZM13.67 51.25C22.4352 51.25 30.8882 47.9569 37.3466 42.0116L-7.80526 -7.0369C-1.9468 -12.4299 5.72039 -15.4166 13.67 -15.4166V51.25ZM13.6702 -16.5H5.91415V50.1667H13.6702V-16.5ZM5.91415 51.25H13.67V-15.4166H5.91415V51.25ZM5.91415 -16.5C14.1337 -16.5 22.0649 -13.4124 28.1261 -7.83129L-17.0317 41.2117C-10.7704 46.977 -2.5772 50.1667 5.91415 50.1667V-16.5ZM-17.7624 42.0115C-11.3053 47.9557 -2.85286 51.25 5.91415 51.25V-15.4166C13.8657 -15.4166 21.5324 -12.4287 27.3895 -7.03689L-17.7624 42.0115ZM28.1174 -7.83932C34.1768 -2.26392 37.9132 5.38309 38.5934 13.5797L-27.8449 19.0932C-27.1422 27.5607 -23.2824 35.4603 -17.023 41.2197L28.1174 -7.83932ZM-28.9246 19.1817C-28.1996 27.922 -24.2154 36.0729 -17.7589 42.0148L27.386 -7.04013C33.2425 -1.65046 36.8562 5.74272 37.5138 13.6704L-28.9246 19.1817ZM38.5923 13.567L37.5913 1.56052L-28.8449 7.09951L-27.8438 19.106L38.5923 13.567ZM-29.9245 7.18954L-28.9235 19.1955L37.5127 13.6565L36.5117 1.6505L-29.9245 7.18954ZM-18.0079 1.56252L-19.0082 13.5687L47.4283 19.1038L48.4285 7.09757L-18.0079 1.56252ZM48.5078 19.1936L49.5081 7.18756L-16.9284 1.65243L-17.9286 13.6585L48.5078 19.1936Z" fill="#F73131" mask="url(#path-1-inside-1_4800_1364)"/>
</g>
</g>
</svg>
