<svg width="24" height="24" viewBox="0 0 24 24" fill="none" xmlns="http://www.w3.org/2000/svg">
<g id="bin-svgrepo-com 1">
<g id="Vector">
<path d="M2.65 4.6C2.29102 4.6 2 4.89102 2 5.25C2 5.60898 2.29102 5.9 2.65 5.9V4.6ZM20.85 5.9C21.209 5.9 21.5 5.60898 21.5 5.25C21.5 4.89102 21.209 4.6 20.85 4.6V5.9ZM2.65 5.9H20.85V4.6H2.65V5.9Z" fill="#0F0F0F"/>
<path d="M7.85 5.25C7.85 5.60898 8.14102 5.9 8.5 5.9C8.85898 5.9 9.15 5.60898 9.15 5.25H7.85ZM14.35 5.25C14.35 5.60898 14.641 5.9 15 5.9C15.359 5.9 15.65 5.60898 15.65 5.25H14.35ZM13.7 2H9.8V3.3H13.7V2ZM9.8 2C9.28283 2 8.78684 2.20545 8.42114 2.57114L9.34038 3.49038C9.46228 3.36848 9.62761 3.3 9.8 3.3V2ZM8.42114 2.57114C8.05544 2.93684 7.85 3.43283 7.85 3.95H9.15C9.15 3.77761 9.21848 3.61228 9.34038 3.49038L8.42114 2.57114ZM7.85 3.95V5.25H9.15V3.95H7.85ZM15.65 5.25V3.95H14.35V5.25H15.65ZM15.65 3.95C15.65 3.43283 15.4445 2.93684 15.0789 2.57114L14.1596 3.49038C14.2815 3.61228 14.35 3.77761 14.35 3.95H15.65ZM15.0789 2.57114C14.7131 2.20545 14.2171 2 13.7 2V3.3C13.8724 3.3 14.0377 3.36848 14.1596 3.49038L15.0789 2.57114Z" fill="#0F0F0F"/>
<path d="M9.15 16.3C9.15 16.659 9.44102 16.95 9.8 16.95C10.159 16.95 10.45 16.659 10.45 16.3H9.15ZM10.45 9.8C10.45 9.44102 10.159 9.15 9.8 9.15C9.44102 9.15 9.15 9.44102 9.15 9.8H10.45ZM10.45 16.3V9.8H9.15V16.3H10.45Z" fill="#0F0F0F"/>
<path d="M13.05 16.3C13.05 16.659 13.341 16.95 13.7 16.95C14.059 16.95 14.35 16.659 14.35 16.3H13.05ZM14.35 9.8C14.35 9.44102 14.059 9.15 13.7 9.15C13.341 9.15 13.05 9.44102 13.05 9.8H14.35ZM14.35 16.3V9.8H13.05V16.3H14.35Z" fill="#0F0F0F"/>
<path d="M5.24777 5.196C5.21794 4.83825 4.90375 4.57242 4.54601 4.60224C4.18826 4.63207 3.92243 4.94626 3.95226 5.304L5.24777 5.196ZM19.5478 5.30397C19.5776 4.94622 19.3118 4.63205 18.954 4.60224C18.5962 4.57244 18.2821 4.83829 18.2523 5.19603L19.5478 5.30397ZM17.0519 19.6035C17.0384 19.766 16.9643 19.9178 16.8443 20.0282L17.7247 20.9848C18.0847 20.6534 18.307 20.1988 18.3474 19.7112L17.0519 19.6035ZM16.8443 20.0282C16.7243 20.1387 16.5672 20.2 16.4041 20.2L16.4039 21.5C16.8932 21.5 17.3647 21.3162 17.7247 20.9848L16.8443 20.0282ZM16.4041 20.2H7.09688V21.5H16.4039L16.4041 20.2ZM7.09688 20.2C6.93378 20.2 6.77658 20.1387 6.65657 20.0282L5.77619 20.9848C6.1362 21.3162 6.60758 21.5 7.09688 21.5V20.2ZM6.65657 20.0282C6.53657 19.9178 6.46247 19.7662 6.44898 19.6037L5.15344 19.7112C5.19389 20.1988 5.41617 20.6534 5.77619 20.9848L6.65657 20.0282ZM6.44898 19.6037L5.24777 5.196L3.95226 5.304L5.15344 19.7112L6.44898 19.6037ZM18.2523 5.19603L17.0519 19.6035L18.3474 19.7112L19.5478 5.30397L18.2523 5.19603Z" fill="#0F0F0F"/>
</g>
</g>
</svg>
