<svg width="24" height="24" viewBox="0 0 24 24" fill="none" xmlns="http://www.w3.org/2000/svg">
<g id="chart-bars-svgrepo-com 1">
<path id="Path 152" d="M21.375 20.75H20.75V8.875C20.75 8.70924 20.6842 8.55027 20.5669 8.43306C20.4497 8.31585 20.2908 8.25 20.125 8.25H16.375C16.2092 8.25 16.0503 8.31585 15.9331 8.43306C15.8158 8.55027 15.75 8.70924 15.75 8.875V12H13.25V5.125C13.25 4.95924 13.1842 4.80027 13.0669 4.68306C12.9497 4.56585 12.7908 4.5 12.625 4.5H8.875C8.70924 4.5 8.55027 4.56585 8.43306 4.68306C8.31585 4.80027 8.25 4.95924 8.25 5.125V15.75H5.125C4.95924 15.75 4.80027 15.8158 4.68306 15.9331C4.56585 16.0503 4.5 16.2092 4.5 16.375V20.75H3.25V2.625C3.25 2.45924 3.18415 2.30027 3.06694 2.18306C2.94973 2.06585 2.79076 2 2.625 2C2.45924 2 2.30027 2.06585 2.18306 2.18306C2.06585 2.30027 2 2.45924 2 2.625V21.375C2 21.5408 2.06585 21.6997 2.18306 21.8169C2.30027 21.9342 2.45924 22 2.625 22H21.375C21.5408 22 21.6997 21.9342 21.8169 21.8169C21.9342 21.6997 22 21.5408 22 21.375C22 21.2092 21.9342 21.0503 21.8169 20.9331C21.6997 20.8158 21.5408 20.75 21.375 20.75ZM5.75 17H8.25V20.75H5.75V17ZM9.5 16.375V5.75H12V20.75H9.5V16.375ZM13.25 13.25H15.75V20.75H13.25V13.25ZM17 20.75V9.5H19.5V20.75H17Z" fill="#0F0F0F"/>
</g>
</svg>
