<svg width="24" height="24" viewBox="0 0 24 24" fill="none" xmlns="http://www.w3.org/2000/svg">
<g id="chart-pie-svgrepo-com 1">
<path id="Vector" fill-rule="evenodd" clip-rule="evenodd" d="M11.75 21.5C17.1347 21.5 21.5 17.1347 21.5 11.75C21.5 6.36523 17.1347 2 11.75 2C6.36523 2 2 6.36523 2 11.75C2 17.1347 6.36523 21.5 11.75 21.5ZM11.75 19.7212C7.34762 19.7212 3.77878 16.1524 3.77878 11.75C3.77878 7.64722 6.87839 4.26839 10.8636 3.8275V11.3829C10.8636 11.853 11.0504 12.3039 11.3829 12.6364L16.725 17.9785C15.3614 19.0691 13.6318 19.7212 11.75 19.7212ZM17.9785 16.725L14.1925 12.939C14.0808 12.8273 14.1599 12.6364 14.3179 12.6364H19.6725C19.5025 14.1733 18.8955 15.5785 17.9785 16.725ZM19.6725 10.8636H13.0795C12.8348 10.8636 12.6364 10.6652 12.6364 10.4205V3.8275C16.3306 4.2362 19.2638 7.16941 19.6725 10.8636Z" fill="#0F0F0F"/>
</g>
</svg>
