<svg width="24" height="24" viewBox="0 0 24 24" fill="none" xmlns="http://www.w3.org/2000/svg">
<g id="clock-svgrepo-com 1">
<path id="Vector" d="M12.5 3C7.25351 3 3 7.25351 3 12.5C3 17.7465 7.25351 22 12.5 22C17.7465 22 22 17.7465 22 12.5C21.9938 7.256 17.7434 3.00623 12.5 3ZM12.5 20.4426C8.11318 20.4426 4.55738 16.8868 4.55738 12.5C4.55738 8.11318 8.11318 4.55738 12.5 4.55738C16.8868 4.55738 20.4426 8.11318 20.4426 12.5C20.4376 16.8843 16.8837 20.4376 12.5 20.4426ZM13.2787 12.1773V6.27049C13.2787 5.84066 12.9298 5.4918 12.5 5.4918C12.0702 5.4918 11.7213 5.84066 11.7213 6.27049V12.5C11.7213 12.7149 11.8085 12.9099 11.9493 13.0507L14.4405 15.5431C14.5813 15.6839 14.7763 15.7711 14.9912 15.7711C15.4216 15.7711 15.7705 15.4223 15.7705 14.9918C15.7705 14.7769 15.6833 14.5819 15.5425 14.4411L13.2787 12.1773Z" fill="black"/>
</g>
</svg>
