<svg width="24" height="24" viewBox="0 0 24 24" fill="none" xmlns="http://www.w3.org/2000/svg">
<g id="contact-svgrepo-com 1">
<path id="Vector" d="M16 2V4M8 2V4M17 18.5C15.6 17.5 13.9 17 12 17C10.1 17 8.4 17.6 7 18.5M19 22H5C3.9 22 3 21.1 3 20V6C3 4.9 3.9 4 5 4H19C20.1 4 21 4.9 21 6V20C21 21.1 20.1 22 19 22ZM15 11C15 12.6569 13.6569 14 12 14C10.3431 14 9 12.6569 9 11C9 9.34315 10.3431 8 12 8C13.6569 8 15 9.34315 15 11Z" stroke="#0F0F0F" stroke-width="1.5" stroke-linecap="round" stroke-linejoin="round"/>
</g>
</svg>
