<svg width="16" height="20" viewBox="0 0 16 20" fill="none" xmlns="http://www.w3.org/2000/svg">
<g id="Group 54">
<path id="Vector" fill-rule="evenodd" clip-rule="evenodd" d="M15.9545 6.20455C15.9545 4.73598 14.7641 3.54546 13.2954 3.54546H6.20453C4.73596 3.54546 3.54544 4.73598 3.54544 6.20455V16.8409C3.54544 18.3095 4.73596 19.5 6.20453 19.5H13.2954C14.7641 19.5 15.9545 18.3095 15.9545 16.8409V6.20455ZM14.1818 6.20455C14.1818 5.71503 13.785 5.31818 13.2954 5.31818H6.20453C5.71501 5.31818 5.31817 5.71503 5.31817 6.20455V16.8409C5.31817 17.3305 5.71501 17.7273 6.20453 17.7273H13.2954C13.785 17.7273 14.1818 17.3305 14.1818 16.8409V6.20455Z" fill="#0F0F0F"/>
<path id="Vector_2" d="M2.65909 1.77273H11.5227C12.0123 1.77273 12.4091 1.37588 12.4091 0.886364C12.4091 0.396843 12.0123 0 11.5227 0H2.65909C1.19052 0 0 1.19052 0 2.65909V15.0682C0 15.5577 0.396843 15.9545 0.886364 15.9545C1.37588 15.9545 1.77273 15.5577 1.77273 15.0682V2.65909C1.77273 2.16957 2.16957 1.77273 2.65909 1.77273Z" fill="#0F0F0F"/>
</g>
</svg>
