<svg width="16" height="20" viewBox="0 0 16 20" fill="none" xmlns="http://www.w3.org/2000/svg">
<path fill-rule="evenodd" clip-rule="evenodd" d="M15.955 6.20453C15.955 4.73596 14.7645 3.54544 13.2959 3.54544H6.20499C4.73642 3.54544 3.5459 4.73596 3.5459 6.20453V16.8409C3.5459 18.3095 4.73642 19.5 6.20499 19.5H13.2959C14.7645 19.5 15.955 18.3095 15.955 16.8409V6.20453ZM14.1823 6.20453C14.1823 5.71501 13.7854 5.31817 13.2959 5.31817H6.20499C5.71547 5.31817 5.31863 5.71501 5.31863 6.20453V16.8409C5.31863 17.3304 5.71547 17.7273 6.20499 17.7273H13.2959C13.7854 17.7273 14.1823 17.3304 14.1823 16.8409V6.20453Z" fill="#FCFCFC"/>
<path d="M2.65909 1.77273H11.5227C12.0123 1.77273 12.4091 1.37588 12.4091 0.886364C12.4091 0.396843 12.0123 0 11.5227 0H2.65909C1.19052 0 0 1.19052 0 2.65909V15.0682C0 15.5577 0.396843 15.9545 0.886364 15.9545C1.37588 15.9545 1.77273 15.5577 1.77273 15.0682V2.65909C1.77273 2.16957 2.16957 1.77273 2.65909 1.77273Z" fill="#FCFCFC"/>
</svg>
