<svg width="24" height="24" viewBox="0 0 24 24" fill="none" xmlns="http://www.w3.org/2000/svg">
<g id="delete-svgrepo-com 1">
<path id="Vector" d="M17.6532 16.1237C17.8429 16.3289 17.9458 16.5996 17.9404 16.879C17.9349 17.1583 17.8216 17.4248 17.624 17.6225C17.4265 17.8201 17.1601 17.9337 16.8807 17.9393C16.6014 17.9449 16.3306 17.8422 16.1253 17.6526L12.0005 13.5279L7.87579 17.6526C7.77693 17.7596 7.65749 17.8454 7.52463 17.9051C7.39177 17.9648 7.24823 17.997 7.10262 17.9998C6.957 18.0026 6.81232 17.976 6.67724 17.9216C6.54217 17.8671 6.41947 17.786 6.31653 17.6829C6.21358 17.5799 6.1325 17.4572 6.07815 17.3221C6.02379 17.187 5.99729 17.0423 6.00022 16.8966C6.00315 16.751 6.03546 16.6075 6.0952 16.4747C6.15495 16.3419 6.2409 16.2225 6.34791 16.1237L10.4727 11.9989L6.34791 7.8763C6.2409 7.77751 6.15495 7.65812 6.0952 7.5253C6.03546 7.39248 6.00315 7.24897 6.00022 7.10336C5.99729 6.95775 6.02379 6.81305 6.07815 6.67793C6.1325 6.54282 6.21358 6.42007 6.31653 6.31705C6.41947 6.21404 6.54217 6.13287 6.67724 6.07843C6.81232 6.02398 6.957 5.99737 7.10262 6.0002C7.24823 6.00304 7.39177 6.03524 7.52463 6.0949C7.65749 6.15455 7.77693 6.24043 7.87579 6.34737L12.0005 10.4711L16.1253 6.34632C16.3306 6.15676 16.6014 6.05403 16.8807 6.05965C17.1601 6.06527 17.4265 6.17882 17.624 6.37648C17.8216 6.57415 17.9349 6.8406 17.9404 7.12C17.9458 7.3994 17.8429 7.67005 17.6532 7.87525L13.5284 11.9989L17.6532 16.1237Z" fill="#CC2929"/>
</g>
</svg>
