<svg width="25" height="24" viewBox="0 0 25 24" fill="none" xmlns="http://www.w3.org/2000/svg">
<g id="delete-svgrepo-com (1) 1">
<path id="Vector" d="M7.91706 19.6264L6.51306 9.8H19.3131L17.9091 19.6264C17.8546 20.0077 17.6644 20.3565 17.3734 20.6088C17.0824 20.8611 16.7102 21 16.3251 21H9.50106C9.11592 21 8.74369 20.8611 8.45272 20.6088C8.16175 20.3565 7.97155 20.0077 7.91706 19.6264ZM20.1131 6.6H16.1131V5.8C16.1131 5.58783 16.0288 5.38434 15.8787 5.23431C15.7287 5.08429 15.5252 5 15.3131 5H10.5131C10.3009 5 10.0974 5.08429 9.94737 5.23431C9.79734 5.38434 9.71306 5.58783 9.71306 5.8V6.6H5.71306C5.50088 6.6 5.2974 6.68429 5.14737 6.83431C4.99734 6.98434 4.91306 7.18783 4.91306 7.4C4.91306 7.61217 4.99734 7.81566 5.14737 7.96569C5.2974 8.11571 5.50088 8.2 5.71306 8.2H20.1131C20.3252 8.2 20.5287 8.11571 20.6787 7.96569C20.8288 7.81566 20.9131 7.61217 20.9131 7.4C20.9131 7.18783 20.8288 6.98434 20.6787 6.83431C20.5287 6.68429 20.3252 6.6 20.1131 6.6Z" fill="#0F0F0F"/>
</g>
</svg>
