<svg width="20" height="20" viewBox="0 0 20 20" fill="none" xmlns="http://www.w3.org/2000/svg">
<path d="M15.6532 14.1237C15.8429 14.3289 15.9458 14.5996 15.9404 14.879C15.9349 15.1583 15.8216 15.4248 15.624 15.6225C15.4265 15.8201 15.1601 15.9337 14.8807 15.9393C14.6014 15.9449 14.3306 15.8422 14.1253 15.6526L10.0005 11.5279L5.87579 15.6526C5.77693 15.7596 5.65749 15.8454 5.52463 15.9051C5.39177 15.9648 5.24823 15.997 5.10262 15.9998C4.957 16.0026 4.81232 15.976 4.67724 15.9216C4.54217 15.8671 4.41947 15.786 4.31653 15.6829C4.21358 15.5799 4.1325 15.4572 4.07815 15.3221C4.02379 15.187 3.99729 15.0423 4.00022 14.8966C4.00315 14.751 4.03546 14.6075 4.0952 14.4747C4.15495 14.3419 4.2409 14.2225 4.34791 14.1237L8.47267 9.99895L4.34791 5.8763C4.2409 5.77751 4.15495 5.65812 4.0952 5.5253C4.03546 5.39248 4.00315 5.24897 4.00022 5.10336C3.99729 4.95775 4.02379 4.81305 4.07815 4.67793C4.1325 4.54282 4.21358 4.42007 4.31653 4.31705C4.41947 4.21404 4.54217 4.13287 4.67724 4.07843C4.81232 4.02398 4.957 3.99737 5.10262 4.0002C5.24823 4.00304 5.39177 4.03524 5.52463 4.0949C5.65749 4.15455 5.77693 4.24043 5.87579 4.34737L10.0005 8.47107L14.1253 4.34632C14.3306 4.15676 14.6014 4.05403 14.8807 4.05965C15.1601 4.06527 15.4265 4.17882 15.624 4.37648C15.8216 4.57415 15.9349 4.8406 15.9404 5.12C15.9458 5.3994 15.8429 5.67005 15.6532 5.87525L11.5284 9.99895L15.6532 14.1237Z" fill="#FCFCFC"/>
</svg>
