<svg width="24" height="24" viewBox="0 0 24 24" fill="none" xmlns="http://www.w3.org/2000/svg">
<g id="ecommerce-truck-for-delivery-svgrepo-com 1">
<g id="Vector">
<path d="M1 4V18.939H3.11762C3.40608 20.3971 4.69463 21.5 6.23613 21.5C7.77762 21.5 9.06617 20.3971 9.35464 18.939H14.9828C15.2713 20.3971 16.5598 21.5 18.1013 21.5C19.6428 21.5 20.9314 20.3971 21.2199 18.939H23.3374V10.8667L16.2334 4H1ZM6.2361 19.8875C5.59169 19.8875 5.03712 19.4963 4.79686 18.939C4.71507 18.7493 4.66955 18.5404 4.66955 18.321C4.66955 17.9438 4.80362 17.5973 5.02656 17.3266C5.31411 16.9774 5.74954 16.7544 6.2361 16.7544C6.72267 16.7544 7.15808 16.9774 7.44564 17.3266C7.66859 17.5972 7.80266 17.9437 7.80266 18.321C7.80266 18.5404 7.75716 18.7493 7.67535 18.939C7.43511 19.4963 6.88052 19.8875 6.2361 19.8875ZM18.1013 19.8875C17.4569 19.8875 16.9023 19.4963 16.6621 18.939C16.5803 18.7493 16.5348 18.5404 16.5348 18.321C16.5348 17.9438 16.6688 17.5973 16.8918 17.3266C17.1793 16.9774 17.6148 16.7544 18.1013 16.7544C18.5879 16.7544 19.0233 16.9774 19.3109 17.3266C19.5338 17.5972 19.6679 17.9437 19.6679 18.321C19.6679 18.5404 19.6224 18.7493 19.5406 18.939C19.3003 19.4963 18.7457 19.8875 18.1013 19.8875ZM21.7249 17.3266H21.1208C20.7024 16.0592 19.507 15.142 18.1013 15.142C16.6956 15.142 15.5002 16.0592 15.0817 17.3266H9.25566C8.83723 16.0592 7.64184 15.142 6.23613 15.142C4.83041 15.142 3.63501 16.0592 3.21657 17.3266H2.61247V5.61247H15.1012V12.0149H21.7249V17.3266ZM16.7136 10.4024V6.70681L20.537 10.4024H16.7136Z" fill="#0F0F0F"/>
<path d="M3.72116 12.0149H14.0657V6.5108H3.72116V12.0149ZM5.33362 8.12327H12.4533V10.4024H5.33362V8.12327Z" fill="#0F0F0F"/>
</g>
</g>
</svg>
