<svg width="16" height="16" viewBox="0 0 16 16" fill="none" xmlns="http://www.w3.org/2000/svg">
<path d="M6.00016 8.66671C6.36835 8.66671 6.66683 8.36823 6.66683 8.00004C6.66683 7.63185 6.36835 7.33337 6.00016 7.33337C5.63197 7.33337 5.3335 7.63185 5.3335 8.00004C5.3335 8.36823 5.63197 8.66671 6.00016 8.66671Z" stroke="#737373" stroke-linecap="round" stroke-linejoin="round"/>
<path d="M6.00016 3.99996C6.36835 3.99996 6.66683 3.70148 6.66683 3.33329C6.66683 2.9651 6.36835 2.66663 6.00016 2.66663C5.63197 2.66663 5.3335 2.9651 5.3335 3.33329C5.3335 3.70148 5.63197 3.99996 6.00016 3.99996Z" stroke="#737373" stroke-linecap="round" stroke-linejoin="round"/>
<path d="M6.00016 13.3333C6.36835 13.3333 6.66683 13.0349 6.66683 12.6667C6.66683 12.2985 6.36835 12 6.00016 12C5.63197 12 5.3335 12.2985 5.3335 12.6667C5.3335 13.0349 5.63197 13.3333 6.00016 13.3333Z" stroke="#737373" stroke-linecap="round" stroke-linejoin="round"/>
<path d="M10.0002 8.66671C10.3684 8.66671 10.6668 8.36823 10.6668 8.00004C10.6668 7.63185 10.3684 7.33337 10.0002 7.33337C9.63197 7.33337 9.3335 7.63185 9.3335 8.00004C9.3335 8.36823 9.63197 8.66671 10.0002 8.66671Z" stroke="#737373" stroke-linecap="round" stroke-linejoin="round"/>
<path d="M10.0002 3.99996C10.3684 3.99996 10.6668 3.70148 10.6668 3.33329C10.6668 2.9651 10.3684 2.66663 10.0002 2.66663C9.63197 2.66663 9.3335 2.9651 9.3335 3.33329C9.3335 3.70148 9.63197 3.99996 10.0002 3.99996Z" stroke="#737373" stroke-linecap="round" stroke-linejoin="round"/>
<path d="M10.0002 13.3333C10.3684 13.3333 10.6668 13.0349 10.6668 12.6667C10.6668 12.2985 10.3684 12 10.0002 12C9.63197 12 9.3335 12.2985 9.3335 12.6667C9.3335 13.0349 9.63197 13.3333 10.0002 13.3333Z" stroke="#737373" stroke-linecap="round" stroke-linejoin="round"/>
</svg>
