<svg width="24" height="24" viewBox="0 0 24 24" fill="none" xmlns="http://www.w3.org/2000/svg">
<g id="left-arrow-to-left-svgrepo-com 1">
<path id="Vector" d="M19.2 11.4H9.928L11.768 9.568C11.8426 9.49341 11.9018 9.40486 11.9421 9.3074C11.9825 9.20994 12.0033 9.10549 12.0033 9C12.0033 8.89451 11.9825 8.79006 11.9421 8.6926C11.9018 8.59514 11.8426 8.50659 11.768 8.432C11.6934 8.35741 11.6049 8.29824 11.5074 8.25787C11.4099 8.2175 11.3055 8.19673 11.2 8.19673C11.0945 8.19673 10.9901 8.2175 10.8926 8.25787C10.7951 8.29824 10.7066 8.35741 10.632 8.432L7.432 11.632C7.35917 11.7081 7.30208 11.7978 7.264 11.896C7.18399 12.0908 7.18399 12.3092 7.264 12.504C7.30208 12.6022 7.35917 12.6919 7.432 12.768L10.632 15.968C10.7064 16.043 10.7949 16.1025 10.8923 16.1431C10.9898 16.1837 11.0944 16.2046 11.2 16.2046C11.3056 16.2046 11.4102 16.1837 11.5077 16.1431C11.6051 16.1025 11.6936 16.043 11.768 15.968C11.843 15.8936 11.9025 15.8051 11.9431 15.7077C11.9837 15.6102 12.0046 15.5056 12.0046 15.4C12.0046 15.2944 11.9837 15.1898 11.9431 15.0923C11.9025 14.9949 11.843 14.9064 11.768 14.832L9.928 13H19.2C19.4122 13 19.6157 12.9157 19.7657 12.7657C19.9157 12.6157 20 12.4122 20 12.2C20 11.9878 19.9157 11.7843 19.7657 11.6343C19.6157 11.4843 19.4122 11.4 19.2 11.4ZM4.8 5C4.58783 5 4.38434 5.08429 4.23432 5.23431C4.08429 5.38434 4 5.58783 4 5.8V18.6C4 18.8122 4.08429 19.0157 4.23432 19.1657C4.38434 19.3157 4.58783 19.4 4.8 19.4C5.01217 19.4 5.21566 19.3157 5.36569 19.1657C5.51572 19.0157 5.6 18.8122 5.6 18.6V5.8C5.6 5.58783 5.51572 5.38434 5.36569 5.23431C5.21566 5.08429 5.01217 5 4.8 5Z" fill="#0F0F0F"/>
</g>
</svg>
