<svg width="22" height="24" viewBox="0 0 22 24" fill="none" xmlns="http://www.w3.org/2000/svg">
<g id="log-activites-svgrepo-com-1">
<path id="Vector" fill-rule="evenodd" clip-rule="evenodd" d="M7.33528 2.24832C7.49428 2.08933 7.70992 2 7.93478 2H14.7174C16.1222 2 17.2609 3.13876 17.2609 4.54348V7.08696C17.2609 7.55519 16.8813 7.93478 16.413 7.93478C15.9448 7.93478 15.5652 7.55519 15.5652 7.08696V4.54348C15.5652 4.07524 15.1856 3.69565 14.7174 3.69565H8.78261V7.93478C8.78261 8.40302 8.40304 8.78261 7.93478 8.78261H3.69565V18.1087C3.69565 18.577 4.07524 18.9565 4.54348 18.9565H6.23913C6.70737 18.9565 7.08696 19.3361 7.08696 19.8043C7.08696 20.2726 6.70737 20.6522 6.23913 20.6522H4.54348C3.13876 20.6522 2 19.5135 2 18.1087V7.93478C2 7.70992 2.08933 7.49428 2.24832 7.33528L7.33528 2.24832ZM4.89466 7.08696H7.08696V4.89466L4.89466 7.08696ZM13.8696 11.3261C11.5284 11.3261 9.63044 13.224 9.63044 15.5652C9.63044 17.9064 11.5284 19.8043 13.8696 19.8043C16.2108 19.8043 18.1087 17.9064 18.1087 15.5652C18.1087 13.224 16.2108 11.3261 13.8696 11.3261ZM7.93478 15.5652C7.93478 12.2875 10.5919 9.63043 13.8696 9.63043C17.1473 9.63043 19.8043 12.2875 19.8043 15.5652C19.8043 18.8429 17.1473 21.5 13.8696 21.5C10.5919 21.5 7.93478 18.8429 7.93478 15.5652ZM14.7174 13.0217C14.7174 12.5535 14.3378 12.1739 13.8696 12.1739C13.4013 12.1739 13.0217 12.5535 13.0217 13.0217V15.5652C13.0217 15.7487 13.0813 15.9272 13.1913 16.0739L14.463 17.7696C14.744 18.1441 15.2754 18.2201 15.65 17.9391C16.0246 17.6582 16.1005 17.1267 15.8196 16.7522L14.7174 15.2826V13.0217Z" fill="#0F0F0F"/>
</g>
</svg>
