<svg width="25" height="24" viewBox="0 0 25 24" fill="none" xmlns="http://www.w3.org/2000/svg">
<g id="notification-2-svgrepo-com 1">
<path id="Vector" d="M9.92216 17.9034L10.0059 17.1581L9.10862 17.0572L9.17414 17.9578L9.92216 17.9034ZM15.904 17.9034L16.652 17.9578L16.7175 17.0572L15.8202 17.1581L15.904 17.9034ZM6.35056 10.8112L5.62666 10.6151L5.62202 10.6322L5.6182 10.6495L6.35056 10.8112ZM19.4756 10.8112L20.208 10.6495L20.2048 10.6351L20.201 10.6209L19.4756 10.8112ZM13.6631 3C13.6631 2.58579 13.3273 2.25 12.9131 2.25C12.4989 2.25 12.1631 2.58579 12.1631 3H13.6631ZM12.1631 4.00474C12.1631 4.41895 12.4989 4.75474 12.9131 4.75474C13.3273 4.75474 13.6631 4.41895 13.6631 4.00474H12.1631ZM9.83837 18.6487C11.8818 18.8784 13.9444 18.8784 15.9878 18.6487L15.8202 17.1581C13.8882 17.3753 11.938 17.3753 10.0059 17.1581L9.83837 18.6487ZM16.5416 18.6563C16.598 18.4268 16.6349 18.1932 16.652 17.9578L15.156 17.849C15.145 18.0003 15.1212 18.1506 15.0849 18.2981L16.5416 18.6563ZM16.4596 18.9896L16.5416 18.6563L15.0849 18.2981L15.003 18.6315L16.4596 18.9896ZM13.7915 21.6464C15.1076 21.3315 16.1361 20.3052 16.4596 18.9896L15.003 18.6315C14.8128 19.4047 14.2096 20.004 13.4425 20.1875L13.7915 21.6464ZM12.0347 21.6464C12.6122 21.7845 13.214 21.7845 13.7915 21.6464L13.4425 20.1875C13.0944 20.2708 12.7318 20.2708 12.3837 20.1875L12.0347 21.6464ZM9.36658 18.9896C9.69007 20.3052 10.7185 21.3315 12.0347 21.6464L12.3837 20.1875C11.6166 20.004 11.0134 19.4047 10.8232 18.6315L9.36658 18.9896ZM9.28461 18.6563L9.36658 18.9896L10.8232 18.6315L10.7412 18.2981L9.28461 18.6563ZM9.17414 17.9578C9.19126 18.1932 9.22818 18.4268 9.28461 18.6563L10.7412 18.2981C10.7049 18.1506 10.6812 18.0003 10.6702 17.849L9.17414 17.9578ZM7.66476 8.82873C8.15231 7.02931 9.53358 5.58915 11.3027 5.01568L10.8402 3.58877C8.59257 4.31734 6.83805 6.14416 6.21696 8.43645L7.66476 8.82873ZM7.07446 11.0073L7.66476 8.82873L6.21696 8.43645L5.62666 10.6151L7.07446 11.0073ZM6.61561 13.0892L7.08292 10.9729L5.6182 10.6495L5.1509 12.7658L6.61561 13.0892ZM6.16306 15.2604C6.16306 15.1799 6.16932 15.1015 6.18123 15.0254L4.69928 14.7934C4.67539 14.946 4.66306 15.102 4.66306 15.2604H6.16306ZM7.35037 16.7223C6.66199 16.582 6.16306 15.9725 6.16306 15.2604H4.66306C4.66306 16.6807 5.65922 17.9085 7.05093 18.1921L7.35037 16.7223ZM7.71796 16.7971L7.35037 16.7223L7.05093 18.1921L7.41853 18.267L7.71796 16.7971ZM18.1082 16.7971C14.6797 17.4956 11.1465 17.4956 7.71796 16.7971L7.41853 18.267C11.0447 19.0057 14.7815 19.0057 18.4076 18.267L18.1082 16.7971ZM18.4758 16.7223L18.1082 16.7971L18.4076 18.267L18.7752 18.1921L18.4758 16.7223ZM19.6631 15.2604C19.6631 15.9725 19.1642 16.582 18.4758 16.7223L18.7752 18.1921C20.1669 17.9085 21.1631 16.6807 21.1631 15.2604H19.6631ZM19.6449 15.0254C19.6568 15.1015 19.6631 15.1799 19.6631 15.2604H21.1631C21.1631 15.102 21.1508 14.946 21.1269 14.7934L19.6449 15.0254ZM18.7432 10.9729L19.2105 13.0892L20.6753 12.7658L20.208 10.6495L18.7432 10.9729ZM18.167 8.77868L18.7502 11.0015L20.201 10.6209L19.6178 8.39802L18.167 8.77868ZM14.645 5.02054C16.3753 5.592 17.7018 7.00574 18.167 8.77868L19.6178 8.39802C19.0244 6.13594 17.3305 4.32779 15.1154 3.59621L14.645 5.02054ZM11.3027 5.01568C12.3871 4.66418 13.5659 4.66417 14.645 5.02054L15.1154 3.59621C13.7302 3.13872 12.2245 3.14004 10.8402 3.58877L11.3027 5.01568ZM21.1269 14.7934C21.0197 14.1089 20.803 13.3445 20.6753 12.7658L19.2105 13.0892C19.3706 13.8142 19.5456 14.3907 19.6449 15.0254L21.1269 14.7934ZM5.1509 12.7658C5.02312 13.3445 4.80641 14.1089 4.69928 14.7934L6.18123 15.0254C6.28058 14.3907 6.45552 13.8142 6.61561 13.0892L5.1509 12.7658ZM12.1631 3V4.00474H13.6631V3H12.1631Z" fill="#0F0F0F"/>
</g>
</svg>
