<svg width="25" height="24" viewBox="0 0 25 24" fill="none" xmlns="http://www.w3.org/2000/svg">
<g id="pin-svgrepo-com (1) 1">
<path id="Vector" d="M18.6598 9.64412L16.2881 7.27004C14.6667 5.64712 13.8561 4.83566 12.9854 5.02775C12.1147 5.21984 11.7199 6.29724 10.9304 8.45204L10.396 9.91047C10.1855 10.4849 10.0803 10.7721 9.89095 10.9943C9.80599 11.094 9.70933 11.1831 9.60305 11.2596C9.36619 11.4301 9.07153 11.5113 8.4822 11.6738C7.1539 12.04 6.48975 12.2231 6.23948 12.6577C6.13129 12.8455 6.07499 13.0588 6.07635 13.2757C6.07952 13.7772 6.56663 14.2648 7.54086 15.24L8.67252 16.373L5.09181 19.9571C4.85347 20.1956 4.85347 20.5825 5.09181 20.8211C5.33016 21.0596 5.7166 21.0596 5.95494 20.8211L9.53577 17.2369L10.7086 18.4108C11.689 19.3921 12.1792 19.8828 12.6838 19.8836C12.8964 19.8839 13.1054 19.8286 13.2901 19.7232C13.7284 19.4731 13.9125 18.804 14.2806 17.466C14.4425 16.8777 14.5234 16.5836 14.6933 16.3468C14.7677 16.2432 14.854 16.1486 14.9505 16.0651C15.1707 15.8744 15.4561 15.7672 16.0268 15.5528L17.502 14.9985C19.633 14.1978 20.6985 13.7975 20.8864 12.9292C21.0741 12.0608 20.2693 11.2552 18.6598 9.64412Z" fill="#0F0F0F"/>
</g>
</svg>
