<svg width="12" height="12" viewBox="0 0 12 12" fill="none" xmlns="http://www.w3.org/2000/svg">
<g clip-path="url(#clip0_7641_3677)">
<path fill-rule="evenodd" clip-rule="evenodd" d="M5 13C5 13.2652 5.10536 13.5196 5.29289 13.7071C5.48043 13.8946 5.73478 14 6 14C6.26522 14 6.51957 13.8946 6.70711 13.7071C6.89464 13.5196 7 13.2652 7 13V7H13C13.2652 7 13.5196 6.89464 13.7071 6.70711C13.8946 6.51957 14 6.26522 14 6C14 5.73478 13.8946 5.48043 13.7071 5.29289C13.5196 5.10536 13.2652 5 13 5H7V-1C7 -1.26522 6.89464 -1.51957 6.70711 -1.70711C6.51957 -1.89464 6.26522 -2 6 -2C5.73478 -2 5.48043 -1.89464 5.29289 -1.70711C5.10536 -1.51957 5 -1.26522 5 -1V5H-1C-1.26522 5 -1.51957 5.10536 -1.70711 5.29289C-1.89464 5.48043 -2 5.73478 -2 6C-2 6.26522 -1.89464 6.51957 -1.70711 6.70711C-1.51957 6.89464 -1.26522 7 -1 7H5V13Z" fill="#FCFCFC"/>
</g>
<defs>
<clipPath id="clip0_7641_3677">
<rect width="12" height="12" fill="white"/>
</clipPath>
</defs>
</svg>
