<svg width="24" height="24" viewBox="0 0 24 24" fill="none" xmlns="http://www.w3.org/2000/svg">
<g id="print-svgrepo-com 1">
<path id="Vector" d="M6.33333 17.0833H4.16667C2.97005 17.0833 2 16.1133 2 14.9167V10.5833C2 8.78841 3.45508 7.33333 5.25 7.33333H6.33333M6.33333 17.0833V13.8333H17.1667V17.0833M6.33333 17.0833V18.1667C6.33333 19.3633 7.30338 20.3333 8.5 20.3333H15C16.1967 20.3333 17.1667 19.3633 17.1667 18.1667V17.0833M6.33333 7.33333V5.16667C6.33333 3.97005 7.30338 3 8.5 3H15C16.1967 3 17.1667 3.97005 17.1667 5.16667V7.33333M6.33333 7.33333H17.1667M17.1667 17.0833H19.3333C20.53 17.0833 21.5 16.1133 21.5 14.9167V10.5833C21.5 8.78841 20.045 7.33333 18.25 7.33333H17.1667M15 10.5833H17.1667" stroke="#424242" stroke-width="1.5" stroke-linecap="round" stroke-linejoin="round"/>
</g>
</svg>
