<svg width="24" height="22" viewBox="0 0 24 22" fill="none" xmlns="http://www.w3.org/2000/svg">
<path d="M22.5406 17.5L13.874 2.33337C13.685 1.99993 13.411 1.72258 13.0798 1.52961C12.7487 1.33665 12.3722 1.23499 11.989 1.23499C11.6057 1.23499 11.2293 1.33665 10.8981 1.52961C10.567 1.72258 10.2929 1.99993 10.104 2.33337L1.4373 17.5C1.24629 17.8308 1.14613 18.2063 1.14698 18.5883C1.14782 18.9702 1.24964 19.3452 1.44212 19.6752C1.63459 20.0051 1.91088 20.2783 2.24297 20.4671C2.57506 20.6559 2.95116 20.7535 3.33314 20.75H20.6665C21.0466 20.7497 21.42 20.6493 21.749 20.4589C22.0781 20.2686 22.3513 19.9951 22.5412 19.6657C22.7311 19.3364 22.831 18.963 22.8309 18.5828C22.8308 18.2027 22.7307 17.8293 22.5406 17.5Z" stroke="#991B1B" stroke-linecap="round" stroke-linejoin="round"/>
</svg>
