<svg width="16" height="16" viewBox="0 0 16 16" fill="none" xmlns="http://www.w3.org/2000/svg">
<path d="M3.00002 11C2.00002 11.84 1.66669 14.3333 1.66669 14.3333C1.66669 14.3333 4.16002 14 5.00002 13C5.47335 12.44 5.46669 11.58 4.94002 11.06C4.68089 10.8127 4.33955 10.6698 3.9815 10.6587C3.62346 10.6476 3.27394 10.7692 3.00002 11Z" stroke="#525252" stroke-linecap="round" stroke-linejoin="round"/>
<path d="M8 9.99999L6 7.99999C6.35476 7.07961 6.80147 6.19737 7.33333 5.36666C8.11012 4.12465 9.19175 3.10203 10.4753 2.39605C11.7589 1.69008 13.2018 1.32424 14.6667 1.33333C14.6667 3.14666 14.1467 6.33333 10.6667 8.66666C9.82459 9.19914 8.93123 9.64582 8 9.99999Z" stroke="#525252" stroke-linecap="round" stroke-linejoin="round"/>
<path d="M6.00002 8H2.66669C2.66669 8 3.03335 5.98 4.00002 5.33334C5.08002 4.61334 7.33335 5.33334 7.33335 5.33334" stroke="#525252" stroke-linecap="round" stroke-linejoin="round"/>
<path d="M8 9.99999V13.3333C8 13.3333 10.02 12.9667 10.6667 12C11.3867 10.92 10.6667 8.66666 10.6667 8.66666" stroke="black" stroke-linecap="round" stroke-linejoin="round"/>
</svg>
