<svg width="24" height="24" viewBox="0 0 24 24" fill="none" xmlns="http://www.w3.org/2000/svg">
<g id="Frame 1">
<path id="Icon" fill-rule="evenodd" clip-rule="evenodd" d="M10.6368 17.2752C12.16 17.2752 13.6487 16.7415 14.8317 15.7722L14.9375 15.6852L19.0886 19.8387C19.1367 19.889 19.1947 19.9292 19.2598 19.9569C19.3236 19.9849 19.3945 20 19.4657 20H19.4696C19.5368 20 19.606 19.9876 19.6715 19.9589C19.7352 19.9319 19.7931 19.8943 19.8437 19.8437C19.8945 19.7928 19.9322 19.7346 19.9593 19.6707C19.9875 19.6039 20 19.5351 20 19.4656V19.4634L19.9999 19.4612C19.9974 19.3936 19.9824 19.3264 19.9553 19.2625C19.9267 19.1949 19.8857 19.1394 19.8378 19.0915L15.6852 14.9384L15.7708 14.8331L15.7709 14.8329C16.7401 13.6497 17.2736 12.1589 17.2736 10.6376C17.2736 6.97792 14.2961 4 10.6368 4C6.97756 4 4 6.97792 4 10.6376C4 14.2973 6.97756 17.2752 10.6368 17.2752ZM16.2167 10.6376C16.2167 12.1318 15.6382 13.5347 14.585 14.5861C13.5335 15.6377 12.1307 16.2182 10.6368 16.2182C9.14282 16.2182 7.74012 15.6396 6.6888 14.5863C5.63726 13.5327 5.05689 12.1316 5.05689 10.6376C5.05689 9.14346 5.63547 7.74051 6.68872 6.68905C7.74015 5.6375 9.14292 5.05702 10.6368 5.05702C12.1308 5.05702 13.5335 5.6356 14.5848 6.68897L14.585 6.68913C15.6382 7.74058 16.2167 9.14346 16.2167 10.6376ZM6.08612 7.2C6.24394 6.99179 6.41713 6.79314 6.60513 6.60545C7.67881 5.53165 9.11168 4.93879 10.6368 4.93879C9.11168 4.93879 7.67881 5.53164 6.60513 6.60545C6.41713 6.79313 6.24394 6.99179 6.08612 7.2Z" fill="#0F0F0F"/>
</g>
</svg>
