<svg width="13" height="13" viewBox="0 0 13 13" fill="none" xmlns="http://www.w3.org/2000/svg">
<g id="Group 52">
<path id="Vector" fill-rule="evenodd" clip-rule="evenodd" d="M8.68768 0.0727651C9.63322 -0.216153 10.6191 0.384521 10.796 1.35728L10.9794 2.36574C11.6393 2.58234 12.1159 3.20345 12.1159 3.93588V5.45803C12.4539 5.76054 12.6667 6.20018 12.6667 6.6895V7.79095C12.6667 8.28027 12.4539 8.71991 12.1159 9.02243V10.5446C12.1159 11.4571 11.3763 12.1967 10.4638 12.1967H1.65217C0.739706 12.1967 0 11.4571 0 10.5446V3.93588C0 3.117 0.595741 2.43727 1.37746 2.30644L8.68768 0.0727651ZM11.0145 8.34168C11.3187 8.34168 11.5652 8.09512 11.5652 7.79095V6.6895C11.5652 6.38534 11.3187 6.13878 11.0145 6.13878H9.36232C9.05815 6.13878 8.81159 6.38534 8.81159 6.6895V7.79095C8.81159 8.09512 9.05815 8.34168 9.36232 8.34168H11.0145ZM11.0145 9.44313V10.5446C11.0145 10.8487 10.7679 11.0953 10.4638 11.0953H1.65217C1.34802 11.0953 1.10145 10.8487 1.10145 10.5446V3.93588C1.10145 3.63173 1.34802 3.38515 1.65217 3.38515H10.4638C10.7667 3.38515 11.0124 3.62965 11.0145 3.93204V5.03733H9.36232C8.44982 5.03733 7.71014 5.77701 7.71014 6.6895V7.79095C7.71014 8.70345 8.44982 9.44313 9.36232 9.44313H11.0145ZM9.74529 1.51657L9.88066 2.28371H4.95652L9.04466 1.08478C9.36039 0.990075 9.68802 1.192 9.74529 1.51657Z" fill="#0F0F0F"/>
</g>
</svg>
