<svg width="16" height="16" viewBox="0 0 16 16" fill="none" xmlns="http://www.w3.org/2000/svg">
<path d="M3.73664 7.6278C3.86201 8.7562 3.92469 9.32033 4.30437 9.6602C4.68405 10 5.2517 10 6.38699 10H6.4708H8.98061H9.88488C10.667 10 11.058 10 11.3753 9.80893C11.6927 9.61787 11.8757 9.27227 12.2416 8.58107L13.8871 5.47298C14.2409 4.80467 13.7564 4 13.0002 4H6.4708H6.31292C4.92245 4 4.22722 4 3.82973 4.44411C3.43223 4.88821 3.50901 5.57919 3.66257 6.96113L3.73664 7.6278Z" stroke="#0F0F0F" stroke-width="1.2" stroke-linejoin="round"/>
<path d="M2 2H2.33333C2.77613 2 3.14812 2.33295 3.19702 2.77303L3.70372 7.33333" stroke="#0F0F0F" stroke-width="1.2" stroke-linecap="round" stroke-linejoin="round"/>
<path d="M6 13C6 13.5523 5.55229 14 5 14C4.44771 14 4 13.5523 4 13C4 12.4477 4.44771 12 5 12C5.55229 12 6 12.4477 6 13Z" stroke="#0F0F0F" stroke-width="1.2"/>
<path d="M12 13C12 13.5523 11.5523 14 11 14C10.4477 14 10 13.5523 10 13C10 12.4477 10.4477 12 11 12C11.5523 12 12 12.4477 12 13Z" stroke="#0F0F0F" stroke-width="1.2"/>
</svg>
