<svg width="10" height="14" viewBox="0 0 10 14" fill="none" xmlns="http://www.w3.org/2000/svg">
<g id="Group 51">
<path id="Vector" d="M8.45266 8.38867H1.97463C1.49234 8.38867 1.25119 8.38867 1.13953 8.48404C1.04265 8.56684 0.991231 8.69095 1.00123 8.818C1.01275 8.96441 1.18326 9.13493 1.52429 9.47589L4.76326 12.715C4.92096 12.8726 4.99977 12.9514 5.09061 12.9809C5.17054 13.0069 5.25667 13.0069 5.3366 12.9809C5.42751 12.9514 5.50633 12.8726 5.66395 12.715L8.90293 9.47589C9.24398 9.13493 9.4145 8.96441 9.42604 8.818C9.43599 8.69095 9.38457 8.56684 9.28768 8.48404C9.17607 8.38867 8.93493 8.38867 8.45266 8.38867Z" stroke="#0F0F0F" stroke-width="0.75" stroke-linecap="round" stroke-linejoin="round"/>
<path id="Vector_2" d="M1.97463 5.61167H8.45266C8.93493 5.61167 9.17607 5.61167 9.28768 5.5163C9.38465 5.43355 9.43599 5.30942 9.42604 5.1824C9.4145 5.036 9.24398 4.86549 8.90293 4.52446L5.66395 1.28546C5.50633 1.12782 5.42751 1.04901 5.3366 1.01948C5.25667 0.993506 5.17054 0.993506 5.09061 1.01948C4.99977 1.04901 4.92096 1.12782 4.76326 1.28546L1.52429 4.52446C1.18326 4.86548 1.01275 5.036 1.00123 5.1824C0.991231 5.30942 1.04265 5.43355 1.13953 5.5163C1.25119 5.61167 1.49234 5.61167 1.97463 5.61167Z" stroke="#0F0F0F" stroke-width="0.75" stroke-linecap="round" stroke-linejoin="round"/>
</g>
</svg>
