<svg width="22" height="22" viewBox="0 0 22 22" fill="none" xmlns="http://www.w3.org/2000/svg">
<g id="Group 53">
<path id="Vector" d="M20.2688 5.92897L13.3938 2.14772C13.2923 2.09189 13.1784 2.06262 13.0625 2.06262C12.9467 2.06262 12.8327 2.09189 12.7312 2.14772L5.85622 5.92897C5.74842 5.98831 5.65854 6.07551 5.59593 6.18144C5.53333 6.28737 5.50031 6.40817 5.50031 6.53122C5.50031 6.65427 5.53333 6.77506 5.59593 6.88099C5.65854 6.98693 5.74842 7.07412 5.85622 7.13347L12.375 10.719V18.0871L10.2876 16.9395L9.62502 18.1439L12.7312 19.8522C12.8327 19.9081 12.9467 19.9375 13.0625 19.9375C13.1784 19.9375 13.2924 19.9081 13.3938 19.8522L20.2688 16.071C20.3767 16.0117 20.4666 15.9245 20.5293 15.8185C20.5919 15.7126 20.625 15.5918 20.625 15.4687V6.53122C20.625 6.40814 20.5919 6.28733 20.5293 6.18139C20.4666 6.07545 20.3767 5.98828 20.2688 5.92897ZM13.0625 3.53482L18.5108 6.53122L13.0625 9.52762L7.61422 6.53122L13.0625 3.53482ZM19.25 15.0622L13.75 18.0872V10.719L19.25 7.69399V15.0622Z" fill="#0F0F0F"/>
<path id="Vector_2" d="M1.375 11H6.875V9.625H1.375V11Z" fill="#0F0F0F"/>
<path id="Vector_3" d="M2.75 16.5H8.25V15.125H2.75V16.5Z" fill="#0F0F0F"/>
<path id="Vector_4" d="M4.125 13.75H9.625V12.375H4.125V13.75Z" fill="#0F0F0F"/>
</g>
</svg>
