<svg width="70" height="53" viewBox="0 0 70 53" fill="none" xmlns="http://www.w3.org/2000/svg">
<path d="M6.05172 9.36844L17.2131 7.50821V41.3607L12.3018 42.3946C9.01306 43.087 5.79705 40.9433 5.17081 37.6413L1.14319 16.4048C0.515988 13.0977 2.73148 9.92182 6.05172 9.36844Z" stroke="#217A44" stroke-width="2"/>
<path d="M63.9483 9.36841L52.7869 7.50818V41.3606L57.6982 42.3946C60.9869 43.087 64.203 40.9433 64.8292 37.6413L68.8568 16.4048C69.484 13.0977 67.2685 9.92178 63.9483 9.36841Z" stroke="#217A44" stroke-width="2"/>
<g filter="url(#filter0_dd_468_4397)">
<rect x="17.0657" y="1.62296" width="35.8689" height="42.7541" rx="5" stroke="#217A44" stroke-width="2" shape-rendering="crispEdges"/>
</g>
<path d="M47.9345 44.377H22.0657C19.3042 44.377 17.0657 42.1385 17.0657 39.377L17.0657 35.916L29.4725 22.7681L38.9827 33.712C39.7834 34.6334 41.2155 34.6289 42.0103 33.7024L47.2457 27.5994L52.9345 33.7208V39.3771C52.9345 42.1385 50.6959 44.377 47.9345 44.377Z" fill="#E8FFF4" stroke="#217A44" stroke-width="2"/>
<circle cx="39.5902" cy="14.9672" r="4.16393" fill="#E8FFF4" stroke="#217A44" stroke-width="2"/>
<defs>
<filter id="filter0_dd_468_4397" x="13.0657" y="0.622955" width="43.8689" height="51.7541" filterUnits="userSpaceOnUse" color-interpolation-filters="sRGB">
<feFlood flood-opacity="0" result="BackgroundImageFix"/>
<feColorMatrix in="SourceAlpha" type="matrix" values="0 0 0 0 0 0 0 0 0 0 0 0 0 0 0 0 0 0 127 0" result="hardAlpha"/>
<feOffset dy="2"/>
<feGaussianBlur stdDeviation="1"/>
<feComposite in2="hardAlpha" operator="out"/>
<feColorMatrix type="matrix" values="0 0 0 0 0 0 0 0 0 0 0 0 0 0 0 0 0 0 0.06 0"/>
<feBlend mode="normal" in2="BackgroundImageFix" result="effect1_dropShadow_468_4397"/>
<feColorMatrix in="SourceAlpha" type="matrix" values="0 0 0 0 0 0 0 0 0 0 0 0 0 0 0 0 0 0 127 0" result="hardAlpha"/>
<feOffset dy="4"/>
<feGaussianBlur stdDeviation="1.5"/>
<feComposite in2="hardAlpha" operator="out"/>
<feColorMatrix type="matrix" values="0 0 0 0 0 0 0 0 0 0 0 0 0 0 0 0 0 0 0.07 0"/>
<feBlend mode="normal" in2="effect1_dropShadow_468_4397" result="effect2_dropShadow_468_4397"/>
<feBlend mode="normal" in="SourceGraphic" in2="effect2_dropShadow_468_4397" result="shape"/>
</filter>
</defs>
</svg>
