<svg width="25" height="24" viewBox="0 0 25 24" fill="none" xmlns="http://www.w3.org/2000/svg">
<g id="WarningCircle">
<path id="Vector" d="M12.9131 2.25C10.9847 2.25 9.09963 2.82183 7.49625 3.89317C5.89287 4.96451 4.64319 6.48726 3.90523 8.26884C3.16728 10.0504 2.9742 12.0108 3.3504 13.9021C3.72661 15.7934 4.65521 17.5307 6.01877 18.8943C7.38233 20.2579 9.11961 21.1865 11.0109 21.5627C12.9022 21.9389 14.8626 21.7458 16.6442 21.0078C18.4258 20.2699 19.9485 19.0202 21.0199 17.4168C22.0912 15.8134 22.6631 13.9284 22.6631 12C22.6603 9.41498 21.6322 6.93661 19.8043 5.10872C17.9764 3.28084 15.4981 2.25273 12.9131 2.25ZM12.1631 7.5C12.1631 7.30109 12.2421 7.11032 12.3827 6.96967C12.5234 6.82902 12.7141 6.75 12.9131 6.75C13.112 6.75 13.3027 6.82902 13.4434 6.96967C13.584 7.11032 13.6631 7.30109 13.6631 7.5V12.75C13.6631 12.9489 13.584 13.1397 13.4434 13.2803C13.3027 13.421 13.112 13.5 12.9131 13.5C12.7141 13.5 12.5234 13.421 12.3827 13.2803C12.2421 13.1397 12.1631 12.9489 12.1631 12.75V7.5ZM12.9131 17.25C12.6906 17.25 12.473 17.184 12.288 17.0604C12.103 16.9368 11.9588 16.7611 11.8737 16.5555C11.7885 16.35 11.7663 16.1238 11.8097 15.9055C11.8531 15.6873 11.9602 15.4868 12.1176 15.3295C12.2749 15.1722 12.4754 15.065 12.6936 15.0216C12.9118 14.9782 13.138 15.0005 13.3436 15.0856C13.5491 15.1708 13.7248 15.315 13.8485 15.5C13.9721 15.685 14.0381 15.9025 14.0381 16.125C14.0381 16.4234 13.9195 16.7095 13.7086 16.9205C13.4976 17.1315 13.2114 17.25 12.9131 17.25Z" fill="#0F0F0F"/>
</g>
</svg>
