<svg width="24" height="24" viewBox="0 0 24 24" fill="none" xmlns="http://www.w3.org/2000/svg">
<g id="bill-svgrepo-com 1">
<g id="Vector">
<path d="M19.2931 2H4.70699C4.31652 2 4 2.29598 4 2.66097V16.788C4 16.9634 4.07451 17.1315 4.2071 17.2556L8.5412 21.3065C8.67386 21.4304 8.85365 21.5 9.04109 21.5H19.293C19.6835 21.5 20 21.204 20 20.839V2.66097C20.0001 2.29598 19.6835 2 19.2931 2ZM6.41425 17.4491H8.3341V19.2435L6.41425 17.4491ZM18.586 20.1781H9.74815V16.788C9.74815 16.423 9.43156 16.1271 9.04116 16.1271H5.41406V3.322H18.5861L18.586 20.1781Z" fill="#4BA66F"/>
<path d="M7.13802 6.73051H13.2154C13.6059 6.73051 13.9223 6.43459 13.9223 6.0696C13.9223 5.70455 13.6058 5.40864 13.2154 5.40864H7.13802C6.74755 5.40864 6.4311 5.70455 6.4311 6.0696C6.43103 6.43459 6.74755 6.73051 7.13802 6.73051Z" fill="#4BA66F"/>
<path d="M15.6464 6.73051H16.862C17.2525 6.73051 17.569 6.43459 17.569 6.0696C17.569 5.70455 17.2524 5.40864 16.862 5.40864H15.6464C15.256 5.40864 14.9395 5.70455 14.9395 6.0696C14.9394 6.43459 15.256 6.73051 15.6464 6.73051Z" fill="#4BA66F"/>
<path d="M7.13802 10.1389H13.2154C13.6059 10.1389 13.9223 9.84297 13.9223 9.47798C13.9223 9.11286 13.6058 8.81701 13.2154 8.81701H7.13802C6.74755 8.81701 6.4311 9.11293 6.4311 9.47798C6.43103 9.84297 6.74755 10.1389 7.13802 10.1389Z" fill="#4BA66F"/>
<path d="M15.6464 10.1389H16.862C17.2525 10.1389 17.569 9.84297 17.569 9.47798C17.569 9.11286 17.2524 8.81701 16.862 8.81701H15.6464C15.256 8.81701 14.9395 9.11293 14.9395 9.47798C14.9394 9.84297 15.256 10.1389 15.6464 10.1389Z" fill="#4BA66F"/>
<path d="M7.13802 13.5471H13.2154C13.6059 13.5471 13.9223 13.2511 13.9223 12.8862C13.9223 12.5212 13.6058 12.2252 13.2154 12.2252H7.13802C6.74755 12.2252 6.4311 12.5212 6.4311 12.8862C6.4311 13.2511 6.74755 13.5471 7.13802 13.5471Z" fill="#4BA66F"/>
<path d="M15.6464 13.5471H16.862C17.2525 13.5471 17.569 13.2511 17.569 12.8862C17.569 12.5212 17.2524 12.2252 16.862 12.2252H15.6464C15.256 12.2252 14.9395 12.5212 14.9395 12.8862C14.9395 13.2511 15.256 13.5471 15.6464 13.5471Z" fill="#4BA66F"/>
<path d="M14.431 16.9555H16.862C17.2525 16.9555 17.569 16.6596 17.569 16.2946C17.569 15.9295 17.2524 15.6336 16.862 15.6336H14.431C14.0405 15.6336 13.7241 15.9295 13.7241 16.2946C13.7241 16.6596 14.0406 16.9555 14.431 16.9555Z" fill="#4BA66F"/>
</g>
</g>
</svg>
