<svg width="24" height="24" viewBox="0 0 24 24" fill="none" xmlns="http://www.w3.org/2000/svg">
<g id="box-svgrepo-com 1">
<path id="Vector" d="M3.15045 7.30328L11.7586 12.2849L20.3083 7.3325M11.7586 21.1173V12.2751M16.633 12.9576V9.38959L7.38139 4.04722M9.74058 2.46794L4.53474 5.36336C3.35513 6.01653 2.39001 7.6543 2.39001 8.99963V14.5077C2.39001 15.853 3.35513 17.4908 4.53474 18.144L9.74058 21.0394C10.8519 21.6535 12.675 21.6535 13.7863 21.0394L18.9922 18.144C20.1718 17.4908 21.1369 15.853 21.1369 14.5077V8.99963C21.1369 7.6543 20.1718 6.01653 18.9922 5.36336L13.7863 2.46794C12.6652 1.84402 10.8519 1.84402 9.74058 2.46794Z" stroke="#4BA66F" stroke-width="1.5" stroke-linecap="round" stroke-linejoin="round"/>
</g>
</svg>
