<svg width="24" height="24" viewBox="0 0 24 24" fill="none" xmlns="http://www.w3.org/2000/svg">
<g id="cook-svgrepo-com 1">
<path id="Vector" d="M20.9862 17.9426L23 7.8736H15.9483C16.0431 7.61013 16.1036 7.32988 16.1036 7.03452C16.1036 5.64667 14.9741 4.51726 13.5863 4.51726C12.1984 4.51726 11.069 5.64667 11.069 7.03452C11.069 7.32988 11.1294 7.61013 11.2234 7.8736H1V9.55178H7.69255L9.55784 17.9426H20.9862ZM12.7472 7.03452C12.7472 6.57218 13.1231 6.19543 13.5863 6.19543C14.0495 6.19543 14.4254 6.57218 14.4254 7.03452C14.4254 7.49685 14.0495 7.8736 13.5863 7.8736C13.1231 7.8736 12.7472 7.49685 12.7472 7.03452ZM20.9535 9.55178L19.6109 16.2645H10.9029L9.41184 9.55178H20.9535ZM9.39086 18.7817H21.1381V20.4599H9.39086V18.7817ZM19.0404 6.19543C20.1975 6.19543 21.1381 5.25398 21.1381 4.09772C21.1381 2.94145 20.1975 2 19.0404 2C17.8833 2 16.9426 2.94145 16.9426 4.09772C16.9426 5.25398 17.8833 6.19543 19.0404 6.19543ZM19.0404 3.67817C19.2711 3.67817 19.4599 3.86613 19.4599 4.09772C19.4599 4.3293 19.2711 4.51726 19.0404 4.51726C18.8096 4.51726 18.6208 4.3293 18.6208 4.09772C18.6208 3.86613 18.8096 3.67817 19.0404 3.67817Z" fill="#4BA66F"/>
</g>
</svg>
