<svg width="17" height="20" viewBox="0 0 17 20" fill="none" xmlns="http://www.w3.org/2000/svg">
<g id="Group 54">
<path id="Vector" fill-rule="evenodd" clip-rule="evenodd" d="M16.8676 6.20453C16.8676 4.73596 15.6771 3.54544 14.2085 3.54544H7.11759C5.64902 3.54544 4.4585 4.73596 4.4585 6.20453V16.8409C4.4585 18.3095 5.64902 19.5 7.11759 19.5H14.2085C15.6771 19.5 16.8676 18.3095 16.8676 16.8409V6.20453ZM15.0949 6.20453C15.0949 5.71501 14.698 5.31817 14.2085 5.31817H7.11759C6.62807 5.31817 6.23122 5.71501 6.23122 6.20453V16.8409C6.23122 17.3304 6.62807 17.7273 7.11759 17.7273H14.2085C14.698 17.7273 15.0949 17.3304 15.0949 16.8409V6.20453Z" fill="#4BA66F"/>
<path id="Vector_2" d="M3.57215 1.77273H12.4358C12.9253 1.77273 13.3221 1.37588 13.3221 0.886364C13.3221 0.396843 12.9253 0 12.4358 0H3.57215C2.10357 0 0.913055 1.19052 0.913055 2.65909V15.0682C0.913055 15.5577 1.3099 15.9545 1.79942 15.9545C2.28894 15.9545 2.68578 15.5577 2.68578 15.0682V2.65909C2.68578 2.16957 3.08263 1.77273 3.57215 1.77273Z" fill="#4BA66F"/>
</g>
</svg>
