<svg width="25" height="24" viewBox="0 0 25 24" fill="none" xmlns="http://www.w3.org/2000/svg">
<g id="delete-svgrepo-com (1) 1">
<path id="Vector" d="M7.91704 19.6264L6.51304 9.8H19.313L17.909 19.6264C17.8545 20.0077 17.6643 20.3565 17.3734 20.6088C17.0824 20.8611 16.7102 21 16.325 21H9.50104C9.1159 21 8.74368 20.8611 8.4527 20.6088C8.16173 20.3565 7.97154 20.0077 7.91704 19.6264ZM20.113 6.6H16.113V5.8C16.113 5.58783 16.0288 5.38434 15.8787 5.23431C15.7287 5.08429 15.5252 5 15.313 5H10.513C10.3009 5 10.0974 5.08429 9.94735 5.23431C9.79733 5.38434 9.71304 5.58783 9.71304 5.8V6.6H5.71304C5.50087 6.6 5.29738 6.68429 5.14735 6.83431C4.99733 6.98434 4.91304 7.18783 4.91304 7.4C4.91304 7.61217 4.99733 7.81566 5.14735 7.96569C5.29738 8.11571 5.50087 8.2 5.71304 8.2H20.113C20.3252 8.2 20.5287 8.11571 20.6787 7.96569C20.8288 7.81566 20.913 7.61217 20.913 7.4C20.913 7.18783 20.8288 6.98434 20.6787 6.83431C20.5287 6.68429 20.3252 6.6 20.113 6.6Z" fill="#CC2929"/>
</g>
</svg>
