<svg width="25" height="24" viewBox="0 0 25 24" fill="none" xmlns="http://www.w3.org/2000/svg">
<g id="delete-svgrepo-com 1">
<path id="Vector" d="M18.5662 16.1237C18.7559 16.3289 18.8588 16.5996 18.8534 16.879C18.848 17.1583 18.7346 17.4248 18.5371 17.6225C18.3395 17.8201 18.0732 17.9337 17.7938 17.9393C17.5144 17.9449 17.2437 17.8422 17.0383 17.6526L12.9136 13.5279L8.78882 17.6526C8.68995 17.7596 8.57051 17.8454 8.43765 17.9051C8.30479 17.9648 8.16125 17.997 8.01564 17.9998C7.87003 18.0026 7.72535 17.976 7.59027 17.9216C7.45519 17.8671 7.3325 17.786 7.22955 17.6829C7.12661 17.5799 7.04553 17.4572 6.99117 17.3221C6.93682 17.187 6.91031 17.0423 6.91324 16.8966C6.91617 16.751 6.94848 16.6075 7.00823 16.4747C7.06797 16.3419 7.15393 16.2225 7.26094 16.1237L11.3857 11.9989L7.26094 7.8763C7.15393 7.77751 7.06797 7.65812 7.00823 7.5253C6.94848 7.39248 6.91617 7.24897 6.91324 7.10336C6.91031 6.95775 6.93682 6.81305 6.99117 6.67793C7.04553 6.54282 7.12661 6.42007 7.22955 6.31705C7.3325 6.21404 7.45519 6.13287 7.59027 6.07843C7.72535 6.02398 7.87003 5.99737 8.01564 6.0002C8.16125 6.00304 8.30479 6.03524 8.43765 6.0949C8.57051 6.15455 8.68995 6.24043 8.78882 6.34737L12.9136 10.4711L17.0383 6.34632C17.2437 6.15676 17.5144 6.05403 17.7938 6.05965C18.0732 6.06527 18.3395 6.17882 18.5371 6.37648C18.7346 6.57415 18.848 6.8406 18.8534 7.12C18.8588 7.3994 18.7559 7.67005 18.5662 7.87525L14.4415 11.9989L18.5662 16.1237Z" fill="#4BA66F"/>
</g>
</svg>
