<svg width="25" height="24" viewBox="0 0 25 24" fill="none" xmlns="http://www.w3.org/2000/svg">
<g id="edit-2-svgrepo-com 1">
<g id="Vector">
<path d="M19.9189 21H5.51327C5.18515 21 4.91304 20.7279 4.91304 20.3998C4.91304 20.0716 5.18515 19.7995 5.51327 19.7995H19.9189C20.247 19.7995 20.5191 20.0716 20.5191 20.3998C20.5191 20.7279 20.247 21 19.9189 21Z" fill="#4BA66F"/>
<path d="M18.3348 6.17951C16.7822 4.6269 15.2616 4.58689 13.669 6.17951L12.7006 7.14789C12.6206 7.22792 12.5885 7.35597 12.6205 7.46801C13.2288 9.58884 14.9255 11.2855 17.0463 11.8937C17.0783 11.9017 17.1103 11.9097 17.1423 11.9097C17.2304 11.9097 17.3104 11.8777 17.3744 11.8137L18.3348 10.8453C19.1271 10.061 19.5112 9.30073 19.5112 8.53243C19.5192 7.74012 19.1351 6.97182 18.3348 6.17951Z" fill="#4BA66F"/>
<path d="M15.6055 12.6214C15.3734 12.5093 15.1493 12.3973 14.9332 12.2692C14.7571 12.1652 14.5891 12.0532 14.421 11.9331C14.2849 11.8451 14.1249 11.717 13.9728 11.589C13.9568 11.581 13.9008 11.5329 13.8368 11.4689C13.5727 11.2448 13.2765 10.9567 13.0124 10.6366C12.9884 10.6206 12.9484 10.5646 12.8924 10.4925C12.8124 10.3965 12.6763 10.2364 12.5563 10.0524C12.4602 9.93231 12.3482 9.75624 12.2441 9.58017C12.1161 9.36408 12.004 9.148 11.892 8.92391C11.875 8.88759 11.8586 8.85144 11.8428 8.8155C11.7247 8.54874 11.3768 8.47075 11.1705 8.67704L6.58595 13.2616C6.48191 13.3657 6.38587 13.5657 6.36186 13.7018L5.92969 16.767C5.84966 17.3112 6.00172 17.8234 6.33785 18.1675C6.62596 18.4476 7.02612 18.5997 7.45829 18.5997C7.55433 18.5997 7.65036 18.5917 7.7464 18.5757L10.8196 18.1435C10.9637 18.1195 11.1637 18.0235 11.2598 17.9194L15.8386 13.3406C16.0463 13.1329 15.968 12.7764 15.6978 12.6611C15.6674 12.6481 15.6366 12.6348 15.6055 12.6214Z" fill="#4BA66F"/>
</g>
</g>
</svg>
