<svg width="27" height="26" viewBox="0 0 27 26" fill="none" xmlns="http://www.w3.org/2000/svg">
<path d="M9.92212 19.9034L10.0059 19.1581L9.10859 19.0572L9.1741 19.9578L9.92212 19.9034ZM15.9039 19.9034L16.6519 19.9578L16.7174 19.0572L15.8201 19.1581L15.9039 19.9034ZM6.35052 12.8112L5.62663 12.6151L5.62198 12.6322L5.61817 12.6495L6.35052 12.8112ZM19.4755 12.8112L20.2079 12.6495L20.2047 12.6351L20.2009 12.6209L19.4755 12.8112ZM13.663 5C13.663 4.58579 13.3272 4.25 12.913 4.25C12.4988 4.25 12.163 4.58579 12.163 5H13.663ZM12.163 6.00474C12.163 6.41895 12.4988 6.75474 12.913 6.75474C13.3272 6.75474 13.663 6.41895 13.663 6.00474H12.163ZM9.83834 20.6487C11.8817 20.8784 13.9443 20.8784 15.9877 20.6487L15.8201 19.1581C13.8881 19.3753 11.9379 19.3753 10.0059 19.1581L9.83834 20.6487ZM16.5415 20.6563C16.5979 20.4268 16.6348 20.1932 16.6519 19.9578L15.1559 19.849C15.1449 20.0003 15.1211 20.1506 15.0848 20.2981L16.5415 20.6563ZM16.4595 20.9896L16.5415 20.6563L15.0848 20.2981L15.0029 20.6315L16.4595 20.9896ZM13.7914 23.6464C15.1075 23.3315 16.136 22.3052 16.4595 20.9896L15.0029 20.6315C14.8127 21.4047 14.2095 22.004 13.4424 22.1875L13.7914 23.6464ZM12.0346 23.6464C12.6121 23.7845 13.2139 23.7845 13.7914 23.6464L13.4424 22.1875C13.0943 22.2708 12.7317 22.2708 12.3836 22.1875L12.0346 23.6464ZM9.36654 20.9896C9.69003 22.3052 10.7185 23.3315 12.0346 23.6464L12.3836 22.1875C11.6165 22.004 11.0133 21.4047 10.8232 20.6315L9.36654 20.9896ZM9.28457 20.6563L9.36654 20.9896L10.8232 20.6315L10.7412 20.2981L9.28457 20.6563ZM9.1741 19.9578C9.19122 20.1932 9.22814 20.4268 9.28457 20.6563L10.7412 20.2981C10.7049 20.1506 10.6812 20.0003 10.6701 19.849L9.1741 19.9578ZM7.66472 10.8287C8.15227 9.02931 9.53354 7.58915 11.3026 7.01568L10.8401 5.58877C8.59253 6.31734 6.83801 8.14416 6.21692 10.4365L7.66472 10.8287ZM7.07442 13.0073L7.66472 10.8287L6.21692 10.4365L5.62663 12.6151L7.07442 13.0073ZM6.61557 15.0892L7.08288 12.9729L5.61817 12.6495L5.15087 14.7658L6.61557 15.0892ZM6.16302 17.2604C6.16302 17.1799 6.16928 17.1015 6.18119 17.0254L4.69924 16.7934C4.67535 16.946 4.66302 17.102 4.66302 17.2604H6.16302ZM7.35034 18.7223C6.66196 18.582 6.16302 17.9725 6.16302 17.2604H4.66302C4.66302 18.6807 5.65918 19.9085 7.05089 20.1921L7.35034 18.7223ZM7.71793 18.7971L7.35034 18.7223L7.05089 20.1921L7.41849 20.267L7.71793 18.7971ZM18.1081 18.7971C14.6796 19.4956 11.1464 19.4956 7.71793 18.7971L7.41849 20.267C11.0446 21.0057 14.7814 21.0057 18.4075 20.267L18.1081 18.7971ZM18.4757 18.7223L18.1081 18.7971L18.4075 20.267L18.7751 20.1921L18.4757 18.7223ZM19.663 17.2604C19.663 17.9725 19.1641 18.582 18.4757 18.7223L18.7751 20.1921C20.1668 19.9085 21.163 18.6807 21.163 17.2604H19.663ZM19.6448 17.0254C19.6567 17.1015 19.663 17.1799 19.663 17.2604H21.163C21.163 17.102 21.1507 16.946 21.1268 16.7934L19.6448 17.0254ZM18.7431 12.9729L19.2104 15.0892L20.6752 14.7658L20.2079 12.6495L18.7431 12.9729ZM18.1669 10.7787L18.7501 13.0015L20.2009 12.6209L19.6177 10.398L18.1669 10.7787ZM14.6449 7.02054C16.3752 7.592 17.7017 9.00574 18.1669 10.7787L19.6177 10.398C19.0243 8.13594 17.3304 6.32779 15.1153 5.59621L14.6449 7.02054ZM11.3026 7.01568C12.387 6.66418 13.5658 6.66417 14.6449 7.02054L15.1153 5.59621C13.7301 5.13872 12.2244 5.14004 10.8401 5.58877L11.3026 7.01568ZM21.1268 16.7934C21.0196 16.1089 20.8029 15.3445 20.6752 14.7658L19.2104 15.0892C19.3705 15.8142 19.5455 16.3907 19.6448 17.0254L21.1268 16.7934ZM5.15087 14.7658C5.02309 15.3445 4.80637 16.1089 4.69924 16.7934L6.18119 17.0254C6.28054 16.3907 6.45548 15.8142 6.61557 15.0892L5.15087 14.7658ZM12.163 5V6.00474H13.663V5H12.163Z" fill="#2A8C51"/>
<path d="M20.913 1C18.1516 1 15.913 3.23858 15.913 6C15.913 8.76142 18.1516 11 20.913 11C23.6744 11 25.913 8.76142 25.913 6C25.913 3.23858 23.6744 1 20.913 1Z" fill="#F73131"/>
<path d="M20.913 1C18.1516 1 15.913 3.23858 15.913 6C15.913 8.76142 18.1516 11 20.913 11C23.6744 11 25.913 8.76142 25.913 6C25.913 3.23858 23.6744 1 20.913 1Z" stroke="white" stroke-width="2"/>
</svg>
