<svg width="25" height="24" viewBox="0 0 25 24" fill="none" xmlns="http://www.w3.org/2000/svg">
<g id="pin-svgrepo-com (1) 1">
<path id="Vector" d="M18.6598 9.64412L16.288 7.27004C14.6667 5.64712 13.8561 4.83566 12.9853 5.02775C12.1147 5.21984 11.7199 6.29724 10.9304 8.45204L10.396 9.91047C10.1855 10.4849 10.0803 10.7721 9.89094 10.9943C9.80598 11.094 9.70931 11.1831 9.60303 11.2596C9.36618 11.4301 9.07152 11.5113 8.48219 11.6738C7.15389 12.04 6.48974 12.2231 6.23947 12.6577C6.13128 12.8455 6.07497 13.0588 6.07634 13.2757C6.07951 13.7772 6.56662 14.2648 7.54084 15.24L8.67251 16.373L5.0918 19.9571C4.85345 20.1956 4.85345 20.5825 5.0918 20.8211C5.33014 21.0596 5.71658 21.0596 5.95492 20.8211L9.53576 17.2369L10.7086 18.4108C11.6889 19.3921 12.1792 19.8828 12.6837 19.8836C12.8964 19.8839 13.1053 19.8286 13.2901 19.7232C13.7284 19.4731 13.9125 18.804 14.2806 17.466C14.4425 16.8777 14.5234 16.5836 14.6933 16.3468C14.7677 16.2432 14.854 16.1486 14.9505 16.0651C15.1707 15.8744 15.4561 15.7672 16.0268 15.5528L17.502 14.9985C19.633 14.1978 20.6985 13.7975 20.8864 12.9292C21.0741 12.0608 20.2693 11.2552 18.6598 9.64412Z" fill="#4BA66F"/>
</g>
</svg>
