<svg width="25" height="24" viewBox="0 0 25 24" fill="none" xmlns="http://www.w3.org/2000/svg">
<g id="print-svgrepo-com 1">
<path id="Vector" d="M7.24639 17.0833H5.07972C3.8831 17.0833 2.91306 16.1133 2.91306 14.9167V10.5833C2.91306 8.78841 4.36813 7.33333 6.16306 7.33333H7.24639M7.24639 17.0833V13.8333H18.0797V17.0833M7.24639 17.0833V18.1667C7.24639 19.3633 8.21644 20.3333 9.41306 20.3333H15.9131C17.1097 20.3333 18.0797 19.3633 18.0797 18.1667V17.0833M7.24639 7.33333V5.16667C7.24639 3.97005 8.21644 3 9.41306 3H15.9131C17.1097 3 18.0797 3.97005 18.0797 5.16667V7.33333M7.24639 7.33333H18.0797M18.0797 17.0833H20.2464C21.443 17.0833 22.4131 16.1133 22.4131 14.9167V10.5833C22.4131 8.78841 20.958 7.33333 19.1631 7.33333H18.0797M15.9131 10.5833H18.0797" stroke="#4BA66F" stroke-width="1.5" stroke-linecap="round" stroke-linejoin="round"/>
</g>
</svg>
