<svg width="25" height="24" viewBox="0 0 25 24" fill="none" xmlns="http://www.w3.org/2000/svg">
<g id="print-svgrepo-com 1">
<path id="Vector" d="M7.24636 17.0833H5.07969C3.88307 17.0833 2.91302 16.1133 2.91302 14.9167V10.5833C2.91302 8.78841 4.3681 7.33333 6.16303 7.33333H7.24636M7.24636 17.0833V13.8333H18.0797V17.0833M7.24636 17.0833V18.1667C7.24636 19.3633 8.21641 20.3333 9.41303 20.3333H15.913C17.1097 20.3333 18.0797 19.3633 18.0797 18.1667V17.0833M7.24636 7.33333V5.16667C7.24636 3.97005 8.21641 3 9.41303 3H15.913C17.1097 3 18.0797 3.97005 18.0797 5.16667V7.33333M7.24636 7.33333H18.0797M18.0797 17.0833H20.2464C21.443 17.0833 22.413 16.1133 22.413 14.9167V10.5833C22.413 8.78841 20.958 7.33333 19.163 7.33333H18.0797M15.913 10.5833H18.0797" stroke="#208046" stroke-width="1.5" stroke-linecap="round" stroke-linejoin="round"/>
</g>
</svg>
