<svg width="24" height="24" viewBox="0 0 24 24" fill="none" xmlns="http://www.w3.org/2000/svg">
<g id="right-arrow-to-left-svgrepo-com 2">
<path id="Vector" d="M4.8 13L14.072 13L12.232 14.832C12.1574 14.9066 12.0982 14.9951 12.0579 15.0926C12.0175 15.1901 11.9967 15.2945 11.9967 15.4C11.9967 15.5055 12.0175 15.6099 12.0579 15.7074C12.0982 15.8049 12.1574 15.8934 12.232 15.968C12.3066 16.0426 12.3951 16.1018 12.4926 16.1421C12.5901 16.1825 12.6945 16.2033 12.8 16.2033C12.9055 16.2033 13.0099 16.1825 13.1074 16.1421C13.2049 16.1018 13.2934 16.0426 13.368 15.968L16.568 12.768C16.6408 12.6919 16.6979 12.6022 16.736 12.504C16.816 12.3092 16.816 12.0908 16.736 11.896C16.6979 11.7978 16.6408 11.7081 16.568 11.632L13.368 8.43199C13.2936 8.35701 13.2051 8.29749 13.1077 8.25688C13.0102 8.21626 12.9056 8.19536 12.8 8.19536C12.6944 8.19536 12.5898 8.21626 12.4923 8.25688C12.3949 8.29749 12.3064 8.35701 12.232 8.43199C12.157 8.50636 12.0975 8.59484 12.0569 8.69233C12.0163 8.78982 11.9954 8.89438 11.9954 8.99999C11.9954 9.1056 12.0163 9.21017 12.0569 9.30766C12.0975 9.40514 12.157 9.49362 12.232 9.56799L14.072 11.4L4.8 11.4C4.58783 11.4 4.38434 11.4843 4.23431 11.6343C4.08428 11.7843 4 11.9878 4 12.2C4 12.4122 4.08428 12.6157 4.23431 12.7657C4.38434 12.9157 4.58783 13 4.8 13ZM19.2 19.4C19.4122 19.4 19.6157 19.3157 19.7657 19.1657C19.9157 19.0157 20 18.8122 20 18.6V5.79999C20 5.58782 19.9157 5.38434 19.7657 5.23431C19.6157 5.08428 19.4122 4.99999 19.2 4.99999C18.9878 4.99999 18.7843 5.08428 18.6343 5.23431C18.4843 5.38434 18.4 5.58782 18.4 5.79999V18.6C18.4 18.8122 18.4843 19.0157 18.6343 19.1657C18.7843 19.3157 18.9878 19.4 19.2 19.4Z" fill="#4BA66F"/>
</g>
</svg>
