<svg width="24" height="24" viewBox="0 0 24 24" fill="none" xmlns="http://www.w3.org/2000/svg">
<g id="Frame 1">
<g id="Icon">
<mask id="path-1-outside-1_5022_589" maskUnits="userSpaceOnUse" x="3" y="3" width="18" height="18" fill="black">
<rect fill="white" x="3" y="3" width="18" height="18"/>
<path fill-rule="evenodd" clip-rule="evenodd" d="M10.6368 17.2752C12.16 17.2752 13.6487 16.7415 14.8317 15.7722L14.9375 15.6852L19.0886 19.8387C19.1367 19.889 19.1947 19.9292 19.2598 19.9569C19.3236 19.9849 19.3945 20 19.4657 20H19.4696C19.5368 20 19.606 19.9876 19.6715 19.9589C19.7352 19.9319 19.7931 19.8943 19.8437 19.8437C19.8945 19.7928 19.9322 19.7346 19.9593 19.6707C19.9875 19.6039 20 19.5351 20 19.4656V19.4634L19.9999 19.4612C19.9974 19.3936 19.9824 19.3264 19.9553 19.2625C19.9267 19.1949 19.8857 19.1394 19.8378 19.0915L15.6852 14.9384L15.7708 14.8331L15.7709 14.8329C16.7401 13.6497 17.2736 12.1589 17.2736 10.6376C17.2736 6.97792 14.2961 4 10.6368 4C6.97756 4 4 6.97792 4 10.6376C4 14.2973 6.97756 17.2752 10.6368 17.2752ZM16.2167 10.6376C16.2167 12.1318 15.6382 13.5347 14.585 14.5861C13.5335 15.6377 12.1307 16.2182 10.6368 16.2182C9.14282 16.2182 7.74012 15.6396 6.6888 14.5863C5.63726 13.5327 5.05689 12.1316 5.05689 10.6376C5.05689 9.14346 5.63547 7.74051 6.68872 6.68905C7.74015 5.6375 9.14292 5.05702 10.6368 5.05702C12.1308 5.05702 13.5335 5.6356 14.5848 6.68897L14.585 6.68913C15.6382 7.74058 16.2167 9.14346 16.2167 10.6376ZM6.08612 7.2C6.24394 6.99179 6.41713 6.79314 6.60513 6.60545C7.67881 5.53165 9.11168 4.93879 10.6368 4.93879C9.11168 4.93879 7.67881 5.53164 6.60513 6.60545C6.41713 6.79313 6.24394 6.99179 6.08612 7.2Z"/>
</mask>
<path fill-rule="evenodd" clip-rule="evenodd" d="M10.6368 17.2752C12.16 17.2752 13.6487 16.7415 14.8317 15.7722L14.9375 15.6852L19.0886 19.8387C19.1367 19.889 19.1947 19.9292 19.2598 19.9569C19.3236 19.9849 19.3945 20 19.4657 20H19.4696C19.5368 20 19.606 19.9876 19.6715 19.9589C19.7352 19.9319 19.7931 19.8943 19.8437 19.8437C19.8945 19.7928 19.9322 19.7346 19.9593 19.6707C19.9875 19.6039 20 19.5351 20 19.4656V19.4634L19.9999 19.4612C19.9974 19.3936 19.9824 19.3264 19.9553 19.2625C19.9267 19.1949 19.8857 19.1394 19.8378 19.0915L15.6852 14.9384L15.7708 14.8331L15.7709 14.8329C16.7401 13.6497 17.2736 12.1589 17.2736 10.6376C17.2736 6.97792 14.2961 4 10.6368 4C6.97756 4 4 6.97792 4 10.6376C4 14.2973 6.97756 17.2752 10.6368 17.2752ZM16.2167 10.6376C16.2167 12.1318 15.6382 13.5347 14.585 14.5861C13.5335 15.6377 12.1307 16.2182 10.6368 16.2182C9.14282 16.2182 7.74012 15.6396 6.6888 14.5863C5.63726 13.5327 5.05689 12.1316 5.05689 10.6376C5.05689 9.14346 5.63547 7.74051 6.68872 6.68905C7.74015 5.6375 9.14292 5.05702 10.6368 5.05702C12.1308 5.05702 13.5335 5.6356 14.5848 6.68897L14.585 6.68913C15.6382 7.74058 16.2167 9.14346 16.2167 10.6376ZM6.08612 7.2C6.24394 6.99179 6.41713 6.79314 6.60513 6.60545C7.67881 5.53165 9.11168 4.93879 10.6368 4.93879C9.11168 4.93879 7.67881 5.53164 6.60513 6.60545C6.41713 6.79313 6.24394 6.99179 6.08612 7.2Z" fill="#4BA66F"/>
<path d="M14.8317 15.7722L14.9902 15.9656L14.9906 15.9653L14.8317 15.7722ZM14.9375 15.6852L15.1143 15.5085L14.9539 15.3479L14.7786 15.4922L14.9375 15.6852ZM19.0886 19.8387L19.2694 19.666L19.2654 19.662L19.0886 19.8387ZM19.2598 19.9569L19.3601 19.7279L19.3576 19.7269L19.2598 19.9569ZM19.6715 19.9589L19.5738 19.7288L19.5712 19.7299L19.6715 19.9589ZM19.8437 19.8437L20.0205 20.0204L20.0205 20.0204L19.8437 19.8437ZM19.9593 19.6707L19.729 19.5733L19.729 19.5733L19.9593 19.6707ZM20 19.4634H20.2502L20.2498 19.4543L20 19.4634ZM19.9999 19.4612L20.2498 19.4522L20.2498 19.452L19.9999 19.4612ZM19.9553 19.2625L20.1856 19.1651L20.1856 19.1651L19.9553 19.2625ZM19.8378 19.0915L20.0146 18.9147H20.0146L19.8378 19.0915ZM15.6852 14.9384L15.4912 14.7807L15.349 14.9557L15.5084 15.1151L15.6852 14.9384ZM15.7708 14.8331L15.5774 14.6746L15.5768 14.6754L15.7708 14.8331ZM15.7709 14.8329L15.9643 14.9913L15.9643 14.9913L15.7709 14.8329ZM14.585 14.5861L14.4083 14.4092L14.4082 14.4094L14.585 14.5861ZM6.6888 14.5863L6.51185 14.7629L6.6888 14.5863ZM6.68872 6.68905L6.86535 6.86598L6.86551 6.86582L6.68872 6.68905ZM14.5848 6.68897L14.4079 6.86558L14.408 6.86575L14.5848 6.68897ZM14.585 6.68913L14.4082 6.8659L14.4083 6.86605L14.585 6.68913ZM6.60513 6.60545L6.78176 6.78238L6.78192 6.78222L6.60513 6.60545ZM6.60513 6.60545L6.78176 6.78237L6.78192 6.78221L6.60513 6.60545ZM10.6368 17.5252C12.218 17.5252 13.7627 16.9713 14.9902 15.9656L14.6733 15.5789C13.5347 16.5118 12.1019 17.0252 10.6368 17.0252V17.5252ZM14.9906 15.9653L15.0964 15.8782L14.7786 15.4922L14.6729 15.5792L14.9906 15.9653ZM14.7607 15.8619L18.9118 20.0155L19.2654 19.662L15.1143 15.5085L14.7607 15.8619ZM18.9079 20.0115C18.9795 20.0863 19.0656 20.146 19.162 20.187L19.3576 19.7269C19.3237 19.7124 19.2939 19.6917 19.2693 19.666L18.9079 20.0115ZM19.1595 20.1859C19.2546 20.2276 19.3597 20.25 19.4657 20.25V19.75C19.4293 19.75 19.3925 19.7421 19.3601 19.7279L19.1595 20.1859ZM19.4657 20.25H19.4696V19.75H19.4657V20.25ZM19.4696 20.25C19.5673 20.25 19.6712 20.232 19.7718 20.1879L19.5712 19.7299C19.5409 19.7432 19.5063 19.75 19.4696 19.75V20.25ZM19.7693 20.189C19.8601 20.1504 19.9455 20.0954 20.0205 20.0204L19.6669 19.6669C19.6407 19.6931 19.6102 19.7133 19.5738 19.7288L19.7693 20.189ZM20.0205 20.0204C20.0958 19.9451 20.1509 19.8593 20.1895 19.7681L19.729 19.5733C19.7135 19.6099 19.6932 19.6406 19.6669 19.6669L20.0205 20.0204ZM20.1895 19.7681C20.2318 19.668 20.25 19.5657 20.25 19.4656H19.75C19.75 19.5044 19.7432 19.5398 19.729 19.5733L20.1895 19.7681ZM20.25 19.4656V19.4634H19.75V19.4656H20.25ZM20.2498 19.4543L20.2498 19.4522L19.7501 19.4703L19.7502 19.4725L20.2498 19.4543ZM20.2498 19.452C20.2461 19.3533 20.2242 19.2564 20.1856 19.1651L19.7251 19.3599C19.7406 19.3965 19.7487 19.4338 19.7501 19.4705L20.2498 19.452ZM20.1856 19.1651C20.1422 19.0625 20.0807 18.9809 20.0146 18.9147L19.661 19.2682C19.6906 19.2979 19.7113 19.3273 19.7251 19.3599L20.1856 19.1651ZM20.0146 18.9147L15.862 14.7616L15.5084 15.1151L19.661 19.2682L20.0146 18.9147ZM15.8793 15.096L15.9648 14.9907L15.5768 14.6754L15.4912 14.7807L15.8793 15.096ZM15.9642 14.9915L15.9643 14.9913L15.5776 14.6744L15.5774 14.6746L15.9642 14.9915ZM15.9643 14.9913C16.9699 13.7637 17.5236 12.2169 17.5236 10.6376H17.0236C17.0236 12.1009 16.5102 13.5358 15.5775 14.6745L15.9643 14.9913ZM17.5236 10.6376C17.5236 6.83988 14.4342 3.75 10.6368 3.75V4.25C14.158 4.25 17.0236 7.11597 17.0236 10.6376H17.5236ZM10.6368 3.75C6.83946 3.75 3.75 6.83988 3.75 10.6376H4.25C4.25 7.11597 7.11566 4.25 10.6368 4.25V3.75ZM3.75 10.6376C3.75 14.4354 6.83946 17.5252 10.6368 17.5252V17.0252C7.11566 17.0252 4.25 14.1593 4.25 10.6376H3.75ZM15.9667 10.6376C15.9667 12.0659 15.4143 13.405 14.4083 14.4092L14.7616 14.763C15.8622 13.6643 16.4667 12.1976 16.4667 10.6376H15.9667ZM14.4082 14.4094C13.4038 15.4138 12.0646 15.9682 10.6368 15.9682V16.4682C12.1968 16.4682 13.6633 15.8615 14.7618 14.7629L14.4082 14.4094ZM10.6368 15.9682C9.2087 15.9682 7.86981 15.4157 6.86575 14.4097L6.51185 14.7629C7.61043 15.8636 9.07695 16.4682 10.6368 16.4682V15.9682ZM6.86575 14.4097C5.86101 13.403 5.30689 12.0654 5.30689 10.6376H4.80689C4.80689 12.1978 5.4135 13.6624 6.51185 14.7629L6.86575 14.4097ZM5.30689 10.6376C5.30689 9.20932 5.85944 7.87017 6.86535 6.86598L6.51209 6.51212C5.41151 7.61084 4.80689 9.07759 4.80689 10.6376H5.30689ZM6.86551 6.86582C7.86988 5.86132 9.20899 5.30702 10.6368 5.30702V4.80702C9.07684 4.80702 7.61041 5.41367 6.51193 6.51228L6.86551 6.86582ZM10.6368 5.30702C12.0649 5.30702 13.4038 5.85955 14.4079 6.86558L14.7618 6.51237C13.6632 5.41164 12.1967 4.80702 10.6368 4.80702V5.30702ZM14.408 6.86575L14.4082 6.8659L14.7617 6.51235L14.7616 6.5122L14.408 6.86575ZM14.4083 6.86605C15.4143 7.87025 15.9667 9.20931 15.9667 10.6376H16.4667C16.4667 9.0776 15.8622 7.61092 14.7616 6.5122L14.4083 6.86605ZM6.28535 7.35102C6.43622 7.15198 6.60186 6.96197 6.78176 6.78238L6.42851 6.42852C6.2324 6.6243 6.05165 6.83161 5.88688 7.04899L6.28535 7.35102ZM6.78192 6.78222C7.80854 5.75547 9.17775 5.18879 10.6368 5.18879V4.68879C9.04561 4.68879 7.54907 5.30782 6.42834 6.42869L6.78192 6.78222ZM10.6368 4.68879C9.04561 4.68879 7.54907 5.30782 6.42834 6.42868L6.78192 6.78221C7.80854 5.75546 9.17775 5.18879 10.6368 5.18879L10.6368 4.68879ZM6.42851 6.42852C6.2324 6.62429 6.05165 6.83161 5.88688 7.04899L6.28535 7.35102C6.43622 7.15198 6.60186 6.96197 6.78176 6.78237L6.42851 6.42852Z" fill="#4BA66F" mask="url(#path-1-outside-1_5022_589)"/>
</g>
</g>
</svg>
