<svg width="24" height="24" viewBox="0 0 24 24" fill="none" xmlns="http://www.w3.org/2000/svg">
<g id="setting-svgrepo-com (2) 1">
<path id="Vector" d="M8.73133 6.07658L8.37339 5.41751L8.37338 5.41752L8.73133 6.07658ZM8.46522 6.22895L8.85243 6.87127L8.85246 6.87125L8.46522 6.22895ZM6.6199 6.32367L6.24743 6.97464L6.24744 6.97465L6.6199 6.32367ZM4.48754 6.89501L3.8395 6.51747L3.8395 6.51747L4.48754 6.89501ZM3.78312 8.10415L3.13508 7.72661L3.13508 7.72661L3.78312 8.10415ZM4.35038 10.2213L3.97789 10.8723L3.97797 10.8723L4.35038 10.2213ZM5.19031 11.8558L4.44048 11.8399L4.44048 11.84L5.19031 11.8558ZM5.19032 12.1443L5.94016 12.1284L5.94015 12.1284L5.19032 12.1443ZM4.3504 13.7787L3.97798 13.1277L3.97791 13.1277L4.3504 13.7787ZM3.78315 15.8958L3.1351 16.2733L3.1351 16.2733L3.78315 15.8958ZM4.48759 17.105L3.83954 17.4825L3.83955 17.4825L4.48759 17.105ZM6.61993 17.6763L6.24752 17.0253L6.24743 17.0253L6.61993 17.6763ZM8.46523 17.7711L8.07797 18.4134L8.07806 18.4134L8.46523 17.7711ZM8.73133 17.9234L9.08931 17.2643L9.08898 17.2642L8.73133 17.9234ZM15.2685 17.9234L14.9107 17.2643L14.9106 17.2643L15.2685 17.9234ZM15.5346 17.7711L15.9216 18.4136L15.9219 18.4134L15.5346 17.7711ZM17.3799 17.6763L17.7524 17.0254L17.7523 17.0253L17.3799 17.6763ZM19.5122 17.105L20.1602 17.4826L20.1602 17.4826L19.5122 17.105ZM20.2167 15.8958L20.8647 16.2734L20.8648 16.2733L20.2167 15.8958ZM19.6494 13.7788L19.2769 14.4297L19.277 14.4298L19.6494 13.7788ZM18.8095 12.1443L19.5593 12.1602L19.5593 12.1599L18.8095 12.1443ZM18.8095 11.8558L19.5593 11.8401L19.5593 11.8399L18.8095 11.8558ZM19.6494 10.2213L20.0218 10.8723L20.0219 10.8723L19.6494 10.2213ZM20.2167 8.10414L20.8648 7.72665L20.8648 7.72661L20.2167 8.10414ZM19.5123 6.89501L20.1604 6.51748L20.1603 6.51746L19.5123 6.89501ZM17.3799 6.32366L17.0074 5.67268L17.0074 5.67269L17.3799 6.32366ZM15.5346 6.22894L15.9218 5.58662L15.9216 5.58647L15.5346 6.22894ZM15.2685 6.07658L15.6266 5.41758L15.6264 5.41749L15.2685 6.07658ZM12 15.75C14.0711 15.75 15.75 14.0711 15.75 12H14.25C14.25 13.2427 13.2427 14.25 12 14.25V15.75ZM15.75 12C15.75 9.92889 14.0711 8.25 12 8.25V9.75C13.2427 9.75 14.25 10.7573 14.25 12H15.75ZM12 8.25C9.92889 8.25 8.25 9.92889 8.25 12H9.75C9.75 10.7573 10.7573 9.75 12 9.75V8.25ZM8.25 12C8.25 14.0711 9.92889 15.75 12 15.75V14.25C10.7573 14.25 9.75 13.2427 9.75 12H8.25ZM15.0203 4.54104C15.0203 3.2757 13.9945 2.25 12.7292 2.25V3.75C13.1661 3.75 13.5203 4.1042 13.5203 4.54104H15.0203ZM12.7292 2.25H11.2706V3.75H12.7292V2.25ZM11.2706 2.25C10.0053 2.25 8.97953 3.27572 8.97953 4.54104H10.4795C10.4795 4.10418 10.8337 3.75 11.2706 3.75V2.25ZM8.97953 4.54104C8.97953 4.85725 8.76863 5.20285 8.37339 5.41751L9.08928 6.73565C9.84472 6.32537 10.4795 5.53425 10.4795 4.54104H8.97953ZM8.37338 5.41752C8.27356 5.47173 8.17508 5.52812 8.07799 5.58665L8.85246 6.87125C8.93023 6.82436 9.00919 6.77915 9.08929 6.73564L8.37338 5.41752ZM8.07802 5.58663C7.68605 5.82292 7.2737 5.83366 6.99237 5.67269L6.24744 6.97465C7.11113 7.46882 8.11461 7.31604 8.85243 6.87127L8.07802 5.58663ZM6.99237 5.6727C5.88775 5.04066 4.48014 5.41782 3.8395 6.51747L5.13559 7.27255C5.36151 6.88476 5.8579 6.75176 6.24743 6.97464L6.99237 5.6727ZM3.8395 6.51747L3.13508 7.72661L4.43117 8.48169L5.13559 7.27255L3.8395 6.51747ZM3.13508 7.72661C2.49384 8.82731 2.87228 10.2396 3.97789 10.8723L4.72288 9.57034C4.34021 9.35137 4.20927 8.86259 4.43117 8.48169L3.13508 7.72661ZM3.97797 10.8723C4.25374 11.0301 4.45006 11.387 4.44048 11.8399L5.94015 11.8717C5.95834 11.0114 5.58713 10.0647 4.7228 9.57029L3.97797 10.8723ZM4.44048 11.84C4.43936 11.8931 4.43879 11.9465 4.43879 12H5.93879C5.93879 11.9571 5.93925 11.9143 5.94015 11.8716L4.44048 11.84ZM4.43879 12C4.43879 12.0535 4.43936 12.1069 4.44049 12.1602L5.94015 12.1284C5.93925 12.0857 5.93879 12.0429 5.93879 12H4.43879ZM4.44049 12.1602C4.45007 12.613 4.25377 12.9699 3.97798 13.1277L4.72283 14.4297C5.5871 13.9353 5.95836 12.9888 5.94016 12.1284L4.44049 12.1602ZM3.97791 13.1277C2.87232 13.7604 2.49388 15.1726 3.1351 16.2733L4.43121 15.5183C4.2093 15.1374 4.34025 14.6486 4.7229 14.4297L3.97791 13.1277ZM3.1351 16.2733L3.83954 17.4825L5.13564 16.7275L4.4312 15.5183L3.1351 16.2733ZM3.83955 17.4825C4.48017 18.5822 5.88779 18.9594 6.99243 18.3273L6.24743 17.0253C5.85793 17.2482 5.36156 17.1152 5.13564 16.7275L3.83955 17.4825ZM6.99234 18.3273C7.27372 18.1663 7.68608 18.1771 8.07797 18.4134L8.8525 17.1288C8.1146 16.6839 7.11115 16.5313 6.24752 17.0253L6.99234 18.3273ZM8.07806 18.4134C8.1751 18.4719 8.27366 18.5284 8.37368 18.5826L9.08898 17.2642C9.00911 17.2208 8.93023 17.1757 8.85241 17.1288L8.07806 18.4134ZM8.37336 18.5825C8.76864 18.7972 8.97953 19.1427 8.97953 19.459H10.4795C10.4795 18.4657 9.84471 17.6746 9.08931 17.2643L8.37336 18.5825ZM8.97953 19.459C8.97953 20.7244 10.0053 21.75 11.2706 21.75V20.25C10.8337 20.25 10.4795 19.8958 10.4795 19.459H8.97953ZM11.2706 21.75H12.7292V20.25H11.2706V21.75ZM12.7292 21.75C13.9945 21.75 15.0203 20.7244 15.0203 19.459H13.5203C13.5203 19.8958 13.1662 20.25 12.7292 20.25V21.75ZM15.0203 19.459C15.0203 19.1427 15.2312 18.7971 15.6264 18.5825L14.9106 17.2643C14.155 17.6747 13.5203 18.4657 13.5203 19.459H15.0203ZM15.6263 18.5826C15.7262 18.5283 15.8246 18.4719 15.9216 18.4136L15.1477 17.1286C15.0696 17.1757 14.9906 17.2209 14.9107 17.2643L15.6263 18.5826ZM15.9219 18.4134C16.3137 18.1771 16.7261 18.1663 17.0075 18.3273L17.7523 17.0253C16.8887 16.5313 15.8851 16.6839 15.1473 17.1288L15.9219 18.4134ZM17.0074 18.3272C18.112 18.9594 19.5196 18.5821 20.1602 17.4826L18.8642 16.7274C18.6382 17.1153 18.1418 17.2482 17.7524 17.0254L17.0074 18.3272ZM20.1602 17.4826L20.8647 16.2734L19.5687 15.5182L18.8642 16.7274L20.1602 17.4826ZM20.8648 16.2733C21.5059 15.1727 21.1275 13.7603 20.0218 13.1278L19.277 14.4298C19.6595 14.6487 19.7905 15.1375 19.5687 15.5183L20.8648 16.2733ZM20.0219 13.1279C19.746 12.97 19.5497 12.613 19.5593 12.1602L18.0597 12.1284C18.0415 12.9888 18.4128 13.9352 19.2769 14.4297L20.0219 13.1279ZM19.5593 12.1599C19.5604 12.1067 19.561 12.0534 19.561 12H18.061C18.061 12.043 18.0606 12.0859 18.0597 12.1287L19.5593 12.1599ZM19.561 12C19.561 11.9466 19.5604 11.8933 19.5593 11.8401L18.0597 11.8715C18.0606 11.9141 18.061 11.957 18.061 12H19.561ZM19.5593 11.8399C19.5497 11.387 19.7461 11.0301 20.0218 10.8723L19.277 9.57031C18.4127 10.0647 18.0415 11.0114 18.0597 11.8717L19.5593 11.8399ZM20.0219 10.8723C21.1276 10.2396 21.5059 8.82727 20.8648 7.72665L19.5686 8.48163C19.7905 8.86261 19.6596 9.35138 19.2769 9.57033L20.0219 10.8723ZM20.8648 7.72661L20.1604 6.51748L18.8643 7.27254L19.5687 8.48167L20.8648 7.72661ZM20.1603 6.51746C19.5197 5.41781 18.1121 5.04065 17.0074 5.67268L17.7524 6.97464C18.1419 6.75175 18.6383 6.88475 18.8643 7.27256L20.1603 6.51746ZM17.0074 5.67269C16.7261 5.83365 16.3138 5.82292 15.9218 5.58662L15.1474 6.87126C15.8852 7.31604 16.8887 7.46881 17.7524 6.97463L17.0074 5.67269ZM15.9216 5.58647C15.8247 5.52812 15.7263 5.47179 15.6266 5.41758L14.9104 6.73558C14.9905 6.77907 15.0695 6.82436 15.1477 6.87141L15.9216 5.58647ZM15.6264 5.41749C15.2312 5.20286 15.0203 4.85728 15.0203 4.54104H13.5203C13.5203 5.53422 14.155 6.32536 14.9106 6.73567L15.6264 5.41749Z" fill="#4BA66F"/>
</g>
</svg>
