<svg width="24" height="24" viewBox="0 0 24 24" fill="none" xmlns="http://www.w3.org/2000/svg">
<g id="UserCircle">
<path id="Vector" d="M6.52375 18.2463L6.27814 18.6304L6.63804 18.9103C8.17112 20.1026 10.0579 20.7499 12 20.7499C13.9421 20.7499 15.8289 20.1026 17.362 18.9103L17.7219 18.6304L17.4763 18.2463C16.8885 17.327 16.0787 16.5705 15.1217 16.0465C14.1647 15.5225 13.0911 15.2478 12 15.2478C10.9089 15.2478 9.83533 15.5225 8.87829 16.0465C7.92126 16.5705 7.11153 17.327 6.52375 18.2463ZM17.7535 17.7599L18.1153 18.2842L18.5386 17.8082C19.6597 16.5476 20.3924 14.9897 20.6485 13.3223C20.9047 11.6549 20.6734 9.949 19.9825 8.41C19.2915 6.871 18.1705 5.56454 16.7542 4.64793C15.338 3.73133 13.687 3.24367 12 3.24367C10.313 3.24367 8.66201 3.73133 7.24577 4.64793C5.82953 5.56454 4.70845 6.871 4.01753 8.41C3.32661 9.949 3.0953 11.6549 3.35147 13.3223C3.60763 14.9897 4.34034 16.5476 5.46136 17.8082L5.88469 18.2842L6.24652 17.7599C7.02699 16.629 8.12442 15.754 9.40081 15.2451L10.2058 14.9241L9.525 14.3878C8.87182 13.8734 8.39519 13.1681 8.16139 12.3702C7.9276 11.5723 7.94825 10.7214 8.22049 9.93579C8.49273 9.15016 9.00301 8.4689 9.68038 7.98674C10.3578 7.50458 11.1685 7.24548 12 7.24548C12.8315 7.24548 13.6422 7.50458 14.3196 7.98674C14.997 8.4689 15.5073 9.15016 15.7795 9.93579C16.0517 10.7214 16.0724 11.5723 15.8386 12.3702C15.6048 13.1681 15.1282 13.8734 14.475 14.3878L13.7942 14.9241L14.5992 15.2451C15.8756 15.754 16.973 16.629 17.7535 17.7599ZM6.86098 4.30891C8.38205 3.29255 10.1703 2.75005 11.9997 2.75C14.4522 2.75266 16.8035 3.72809 18.5377 5.46228C20.272 7.19653 21.2474 9.54793 21.25 12.0005C21.2499 13.8298 20.7074 15.618 19.6911 17.139C18.6747 18.6602 17.23 19.8458 15.5398 20.5459C13.8496 21.246 11.9897 21.4292 10.1954 21.0723C8.40109 20.7154 6.7529 19.8344 5.45926 18.5407C4.16563 17.2471 3.28465 15.5989 2.92774 13.8046C2.57082 12.0103 2.754 10.1504 3.45411 8.46018C4.15422 6.76996 5.33982 5.32531 6.86098 4.30891ZM9.08986 9.3055C8.70527 9.88108 8.5 10.5578 8.5 11.25C8.5 12.1783 8.86875 13.0685 9.52513 13.7249C10.1815 14.3812 11.0717 14.75 12 14.75C12.6922 14.75 13.3689 14.5447 13.9445 14.1601C14.5201 13.7756 14.9687 13.2289 15.2336 12.5894C15.4985 11.9499 15.5678 11.2461 15.4327 10.5672C15.2977 9.88825 14.9644 9.26461 14.4749 8.77513C13.9854 8.28564 13.3617 7.9523 12.6828 7.81725C12.0039 7.6822 11.3001 7.75151 10.6606 8.01642C10.0211 8.28133 9.47444 8.72993 9.08986 9.3055Z" stroke="#4BA66F"/>
</g>
</svg>
